<?xml version="1.0" standalone="no"?>
<!DOCTYPE svg PUBLIC "-//W3C//DTD SVG 1.1//EN" "http://www.w3.org/Graphics/SVG/1.1/DTD/svg11.dtd">
<svg xmlns="http://www.w3.org/2000/svg">
<metadata>Copyright (C) 2017 by original authors @ fontello.com</metadata>
<defs>
<font id="font-icons" horiz-adv-x="1000" >
<font-face font-family="font-icons" font-weight="400" font-stretch="normal" units-per-em="1000" ascent="850" descent="-150" />
<missing-glyph horiz-adv-x="1000" />
<glyph glyph-name="django" unicode="&#xe800;" d="M110-150c-1 2-4 3-8 3-3 0-13 4-23 9-23 11-49 35-59 56-15 32-14 8-14 430 0 422-1 398 14 430 10 20 36 45 59 56 10 5 20 9 23 9 4 0 7 1 8 2 1 2 133 3 389 3l388 0 19-7c44-15 75-47 86-91 6-20 6-784 0-804-5-21-15-39-29-55-17-18-33-28-57-37l-19-6-388 0c-256 0-388 1-389 2z m524 136c10 6 27 19 37 29 16 16 21 23 31 43 23 48 24 65 23 262l0 157-54 0-54 0-1-158c-2-126-3-161-6-176-11-53-34-85-80-109-9-5-17-10-17-11 0-3 6-6 53-29 21-10 41-18 44-19 3 0 14 5 24 11z m-165 139c34 4 75 11 79 14 2 2 3 56 3 255l0 253-6 2c-8 2-97 2-101-1-2-1-3-22-4-82l0-81-47-1c-52 0-68-3-101-20-25-14-57-46-69-72-14-28-20-56-20-91 0-45 8-76 25-102 28-43 73-67 139-74 16-2 79-2 102 0z m-103 93c-19 6-30 16-40 36-8 16-9 20-10 43-1 37 5 56 24 76 16 15 29 21 53 24 16 2 43-3 46-7 3-6 2-171-1-174-5-5-56-4-72 2z m359 374l1 56-55-1-54 0-1-53c0-29 0-54 1-55 1-3 13-4 54-3l54 1 0 55z" horiz-adv-x="1000" />

<glyph glyph-name="es6" unicode="&#xe801;" d="M695 222c-54 12-89 53-84 102 2 17 10 39 19 56 5 7 26 37 49 67l41 54 33 1c19 0 35-1 36-1 2-2-54-77-67-89-4-5-7-8-7-8 0-1 11-1 25-1 22 0 27-1 37-5 31-13 50-39 53-74 4-45-22-82-66-97-11-4-20-5-37-6-13 0-27 0-32 1z m38 54c18 5 31 22 31 40 0 32-36 52-65 37-16-9-25-29-21-46 7-25 29-37 55-31z m-263-53c-31 5-60 22-74 44-4 5-7 11-7 12 0 1 9 8 21 15l22 12 14-13c11-11 16-15 24-17 14-4 30-4 41 2 10 5 16 13 16 24 0 13-10 22-40 35-44 20-58 29-69 46-23 33-16 81 14 104 31 24 86 22 116-3 7-7 19-21 19-24 0-2-39-28-42-28-1 0-5 3-8 7-10 14-29 19-44 12-12-6-16-23-8-35 5-7 11-11 56-32 39-18 56-37 62-66 7-42-14-77-54-90-13-4-47-7-59-5z m-290 5c-1 0-1 62-1 137l0 135 90 0 91-1 0-22c0-13 0-22-2-24-1-1-23-2-62-3l-60-1-1-27c0-18 0-27 2-29 2-2 12-3 55-3l53 0-1-23 0-24-54-1-54-1 0-32 0-32 63 0c48-1 65-2 66-3 2-3 2-40 0-45-1-2-11-3-92-3-51 0-92 1-93 2z m320 622c-276 0-500-224-500-500 0-276 224-500 500-500 276 0 500 224 500 500 0 276-224 500-500 500z m0-75c235 0 425-190 425-425 0-235-190-425-425-425-235 0-425 190-425 425 0 235 190 425 425 425z" horiz-adv-x="1000" />

<glyph glyph-name="gulp" unicode="&#xe802;" d="M481-151c-9 1-23 2-30 3-18 2-40 6-51 10-11 4-19 10-21 15 0 1-3 37-5 80l-6 78-14 23c-8 14-14 25-14 25 0 0 4-1 9-3 33-10 69-16 114-19 14-1 58-1 72 0 45 3 81 9 112 19 12 4 12 4 12 3 0-1-6-11-13-22-10-18-12-22-12-24 0-1-3-38-5-81-4-64-5-79-6-81-5-10-36-20-77-24-19-2-46-2-65-2z m-13 222c-47 3-82 9-112 20-8 2-25 10-27 12l-2 2-7 76c-5 42-8 76-8 76 0 1 2 0 5-1 6-2 14-2 20-1 10 3 20 9 33 22 5 4 8 7 9 7 1 0 0-2-4-17-7-21-9-30-8-36 2-4 6-6 10-4 6 3 10 13 18 44 5 18 7 26 13 43 8 25 11 36 11 44 0 6-1 9-5 10-5 3-11-2-15-15-1-2-3-9-5-14-3-11-5-15-10-22-19-24-41-41-52-38-11 3-13 22-5 49 8 26 28 65 43 81 9 9 23 16 31 16 6-1 10-5 15-13 6-11 8-13 13-13 4 0 7 1 9 4 5 9-10 32-28 40-4 3-9 3-15 3-20-2-38-15-56-41-11-16-21-37-31-62-3-8-4-11-4-9 0 1-6 55-13 121-7 66-12 121-12 122 0 2-1 2 7-2 24-9 72-16 140-19 34-2 112-2 145 0 73 3 121 10 146 21 3 1 5 2 5 1 1 0-6-60-14-134-11-99-15-135-16-136-1-1-4-5-7-8-12-11-28-21-41-24-4-1-5-1-6 0-1 0 0 1 1 3 1 1 6 7 12 13 18 18 25 27 28 38 2 10-2 20-11 23-10 3-27-4-42-17-2-2-4-3-4-3 0 0 0 2 0 4 1 2 1 4 1 5-1 5-7 8-10 6-3-1-5-5-9-18-7-18-10-25-20-34-5-6-9-9-15-12-5-2-20-7-21-7-4 2-2 14 7 37 5 14 11 29 24 57 11 25 12 29 14 37 3 11 2 18-2 21-2 1-4 1-6 0-5-3-11-16-21-39-3-9-10-26-15-39-10-26-14-37-18-51-3-12-4-13-8-17-7-6-17-9-21-7-2 2-3 4-3 9 0 7 2 15 11 35 6 16 8 21 8 25 0 4 0 6-2 7-3 1-5 0-8-4-5-4-9-12-16-28-3-6-6-12-7-13-4-7-18-23-25-27-11-9-18-7-16 5 2 8 7 23 15 40 8 17 9 22 5 26-2 3-6 1-11-5-6-8-13-21-19-35-10-25-11-45-3-52 3-3 6-4 14-4 7 0 10 0 16 4 5 3 13 10 17 16l4 5 0-2c0-11 3-16 10-19 7-3 19-1 29 5 4 3 5 3 5 3 3-5 5-7 7-8 9-5 23 0 42 13 3 2 5 4 5 4 1-1-3-12-13-34-3-8-7-17-9-20-7-17-7-27-2-29 7-4 18 12 33 49 18 45 28 65 41 78 8 7 18 12 27 13 4 0 4 0 5-1 0-2-2-5-14-17-13-13-16-17-21-24-7-10-10-18-7-25 2-8 10-12 21-10 12 2 32 12 44 22 2 2 4 3 4 3 0 0 1-1 0-3 0-2-4-41-10-88-8-75-9-86-10-87-2-1-16-8-25-12-29-10-67-17-113-19-9-1-54-1-63-1z m-13 495c-94 3-165 14-176 27-4 5-2 9 6 13 30 15 136 25 243 23 14-1 26-1 27-1 0 1 5 22 11 48 7 25 12 47 12 47 1 1 105 111 116 123 3 3 3 3 6 3 9 0 25-13 26-23 0-1 0-2-1-3-1-1-26-28-56-60l-55-57-10-39c-5-21-10-39-10-40 1-1 2-1 14-2 40-3 81-9 100-15 21-7 24-14 11-21-20-11-76-19-155-22-17-1-90-1-109-1z m122 15c11 1 15 3 15 6 0 2-1 3-2 4-2 2-3 2-4 0 0-1 0-1 0-2 1-1 1-1 0-2-3-2-33-2-40 0-3 0-3 0-3 2 0 1-1 2-1 2-1 1-2 1-3-1-1-2-1-3 0-6 2-2 4-2 10-3 5-1 21-1 28 0z" horiz-adv-x="1000" />

<glyph glyph-name="heroku" unicode="&#xe803;" d="M528-144c-19 9-27 22-28 46-2 22 2 33 14 46 14 17 42 21 65 10 35-17 38-75 4-99-15-11-37-12-55-3z m40 26c8 10 10 23 7 36-4 14-11 20-23 20-8 0-11-2-16-8-11-13-8-45 5-52 9-6 20-4 27 4z m223-29c-22 8-25 16-26 65-2 45-1 46 17 45l11-1 1-38c1-33 2-39 6-44 6-7 16-7 22 0 5 4 5 8 5 41 0 41 1 43 18 42l11-1 0-43c0-41 0-44-5-51-3-4-9-9-13-12-11-6-35-7-47-3z m-659 2c-1 2-1 27-1 55l1 52 14 0 14 0 1-20 0-19 18 0 17 0 0 17c0 21 3 24 19 23l10-1 1-55 1-55-15 1-14 0-1 21-1 21-17 0-18 0 0-21-1-21-13 0c-10-1-14 0-15 2z m134-1c-3 3-2 103 2 106 2 2 14 3 37 3 35 0 35 0 38-6 2-3 2-9 1-13-1-6-2-6-22-6-23 0-28-3-27-12 1-4 4-5 17-6l17-1 1-11c1-12-1-12-23-14-10 0-11-1-11-8l0-7 24-2c24-1 28-3 28-13 0-12-1-12-42-12-21 0-39 1-40 2z m114 0c-1 1-2 24-2 53 0 42 1 51 4 54 6 4 58 2 69-4 20-11 23-42 5-58l-9-7 10-17c5-9 9-19 9-20 0-2-5-3-14-3l-15 0-10 18c-13 24-17 24-19 1l-1-18-13 0c-7-1-13 0-14 1z m54 64c6 6 6 9-1 15-3 4-7 5-14 4-9 0-9-1-10-9-1-4 0-10 0-12 2-5 19-4 25 2z m205-62c-2 7-1 97 2 102 1 4 5 5 13 5 6 0 12-1 14-3 1-2 3-9 3-16 0-8 1-14 2-13 1 0 8 7 15 16 12 15 12 15 25 16 8 0 15-1 16-2 2-2-3-9-14-22l-16-19 4-9c3-6 12-20 19-32 8-13 13-24 12-25-1-1-9-2-17-1l-15 0-8 16c-5 8-11 17-13 19-6 8-10 1-11-18l-1-17-14 0c-11-1-14 0-16 3z m-458 192c-23 8-42 27-48 49-1 6-2 133-2 356l1 347 6 10c8 16 16 24 31 33l14 7 311 0 312 0 13-7c15-9 23-17 32-33l5-10 0-352 0-352-7-14c-8-14-17-23-33-31l-10-6-308 0c-255-1-310 0-317 3z m618 41c5 3 11 8 13 13 5 8 5 24 5 346 0 321 0 337-5 345-2 5-8 11-13 13-8 5-23 5-305 5-282 0-297 0-305-5-5-2-11-8-13-13-5-8-5-24-5-345 0-322 0-338 5-346 2-5 8-10 13-13 8-4 23-5 305-5 282 0 297 1 305 5z m-202 78c-1 1-2 57-2 124 0 122 0 123-6 134-8 17-19 21-52 21-50 0-114-17-183-48-20-9-38-16-39-16-2 0-2 65-2 174l1 173 39 0 39 0 1-111c0-61 1-112 2-113 2-1 12 1 24 4 55 16 119 23 155 17 49-8 89-46 99-94 2-9 3-56 2-139l0-127-38 0c-21-1-39 0-40 1z m-285 79c0 66 1 76 4 75 6-1 84-71 84-75 0-4-78-74-84-75-3-1-4 8-4 75z m227 355c-1 1 4 10 10 20 16 24 32 59 39 83 3 11 7 21 8 23 3 5 77 5 79 0 2-7-9-45-19-67-10-21-26-45-36-55-5-6-7-6-43-6-20 0-38 1-38 2z" horiz-adv-x="1000" />

<glyph glyph-name="phone-circled" unicode="&#xe804;" d="M0 350q0 207 147 354t353 146 354-146 146-354-146-354-354-146-353 146-147 354z m199 162q-4-51 41-142 71-133 229-248 107-71 193-73 29 0 47 16l84 86q10 10 8 23t-16 24l-123 72q-19 12-45-6l-35-37q-6-6-18-2-11 2-24 8t-25 16-21 16-21 21-20 17q-64 61-80 119 0 4 4 10l31 31q18 18 8 43l-68 129q-12 18-28 16-9 0-19-8l-84-86q-18-16-18-45z" horiz-adv-x="1000" />

<glyph glyph-name="javascript" unicode="&#xe805;" d="M444-150c-9 1-30 5-41 7-44 8-84 22-126 43-28 14-53 30-77 48-106 80-176 198-195 328-6 43-7 91-1 134 7 57 22 109 47 160 40 81 100 148 176 198 113 75 255 100 389 69 123-29 232-104 302-209 12-19 21-35 32-55 24-49 39-95 48-152l2-12 0-57c0-54 0-57-1-68-10-75-37-149-79-212-19-28-37-50-62-75-38-39-79-69-126-94-52-26-110-45-166-52-11-1-15-1-66-1-29 0-55 0-56 0z m71 216l9 2 106 61c102 58 107 61 112 66 4 4 6 6 8 11 5 11 5 2 5 144l0 127-2 6c-4 10-10 18-18 23-4 3-210 121-215 123-10 6-27 6-38 0-2-1-52-29-110-63-99-57-107-61-111-66-4-3-6-6-8-10-6-12-5 0-5-142 0-124 0-128 1-133 3-9 8-18 15-23 5-4 56-34 66-38 16-8 28-11 41-11 36 0 59 20 63 56 0 4 0 50 0 129l0 123-1 2-2 1-16 0c-14 0-17 0-18-1l-1-1-1-120c0-76 0-123 0-126-1-6-4-13-8-16-2-2-5-4-8-5-4-2-5-2-12-3-7 0-14 2-21 6-2 1-16 9-31 18-20 12-28 16-29 18l-1 2 0 122 0 122 2 2c1 2 36 22 98 58 53 30 101 57 106 60 9 5 11 6 13 5 0 0 48-28 105-61 61-35 106-61 107-62l2-2 0-121 0-121-2-3c-2-1-49-28-109-63-103-59-106-61-108-60-1 1-13 8-28 17-32 18-29 17-42 10-5-2-13-5-17-7-10-3-11-5-7-9 2-1 69-41 77-45 8-4 19-5 33-2z m77 165c30 4 52 16 64 33 4 5 8 14 9 20 2 8 2 20 1 27-2 21-13 34-35 43-13 6-28 9-55 13-35 4-56 9-65 13-8 4-12 9-11 18 1 9 6 16 15 21 16 8 56 9 78 2 14-4 23-14 26-30 3-8 2-8 21-8 20 0 20 0 19 9-1 9-4 20-7 28-12 22-32 35-68 41-12 2-47 1-58-1-32-6-52-18-61-39-5-11-7-29-4-41 2-11 8-21 16-28 14-11 33-17 74-22 43-5 61-10 69-17 5-5 6-8 6-16-1-16-10-24-30-28-21-5-59-4-75 2-17 5-25 15-28 34-1 8 0 8-20 8l-17 0-1-2c-2-2-2-3-2-9 2-19 7-32 18-44 15-16 39-25 72-28 11-1 39-1 49 1z" horiz-adv-x="1000" />

<glyph glyph-name="jquery" unicode="&#xe806;" d="M500-150c276 0 500 224 500 500 0 276-224 500-500 500-276 0-500-224-500-500 0-276 224-500 500-500z m0 60c243 0 440 197 440 440 0 243-197 440-440 440-243 0-440-197-440-440 0-243 197-440 440-440z m-52 658c-21-36-23-80-12-120 12-38 35-71 65-96 1 0 1-1 2-1 3-2 6-5 9-7 1-1 2-2 4-3 0 0 1-1 2-1 2-1 4-3 6-4 1 0 1 0 1-1 2-1 4-2 6-3 0 0 1-1 2-1 1-1 3-2 4-2 3-2 6-3 8-4 1-1 2-1 2-1 2-1 5-2 7-3 1 0 2-1 3-1 2-1 4-2 6-2 1-1 2-1 3-1 3-1 6-2 9-3 68-18 132 5 165 55 0 0-37-127-195-100-3 1-6 2-9 3-1 0-2 0-3 1-2 1-4 1-6 2-1 0-2 1-3 1-2 1-5 2-7 3 0 0-1 0-2 1-2 1-5 2-8 4-2 1-3 1-4 2-1 0-2 1-2 1-2 1-4 2-6 3 0 1-1 1-1 1-2 1-4 3-6 4-1 0-2 1-2 1-2 1-3 2-4 3-3 2-6 5-9 7-1 0-1 1-2 1-3 3-5 5-8 7-3 3-5 5-8 7 0 1-1 2-1 2-3 3-5 5-7 8-6 5-11 13-16 20-5 8-10 16-14 24-24 48-25 110 5 156l26 37z m-124-47c-38-75-21-167 26-233 2-2 3-5 5-7 1-1 1-1 2-2 1-2 3-4 4-6 1-1 1-1 2-2 2-2 4-5 6-7 2-3 4-5 7-7 0-1 1-2 2-2 1-2 3-4 5-6 0 0 1-1 2-1 2-3 4-5 7-7 2-3 5-5 7-7 1 0 1-1 2-1 2-2 4-3 6-5 0-1 1-1 2-2 2-1 4-3 6-4 1-1 1-1 2-2 2-1 4-3 6-4 1-1 2-1 3-2 3-2 6-4 9-5 0-1 1-1 2-2 2-1 4-2 7-4 1 0 2-1 3-2 2-1 4-2 6-3 1 0 1 0 2-1 2-1 5-2 7-3 1 0 1-1 2-1 3-1 6-2 9-4 0 0 1 0 2-1 3-1 5-2 8-3 4-1 7-2 10-3 1 0 2-1 3-1 3-1 6-2 9-3 84-20 173-2 223 66 0 0-59-167-265-128-3 1-6 2-9 3-1 0-2 0-2 0-4 1-7 2-10 4-3 1-6 2-9 3-1 0-1 1-2 1-3 1-6 2-9 4 0 0-1 0-1 0-3 2-5 3-8 4 0 0-1 1-2 1-2 1-4 2-6 3-1 1-2 1-3 2-2 1-5 3-7 4-1 0-1 1-2 1-3 2-6 4-9 6-1 0-2 1-2 2-2 1-4 2-6 3-1 1-2 2-3 2-2 2-4 3-5 5-1 0-2 1-3 2-2 1-4 3-5 4-1 1-2 1-3 2-2 2-4 4-6 6 0 0-1 0-1 1-3 2-5 4-7 6-1 1-2 1-2 2-2 2-4 3-5 5-1 1-2 2-2 2-2 2-4 5-6 7-3 3-5 5-7 8 0 0-1 1-2 2-1 2-2 3-4 5-1 1-1 2-2 3-1 2-3 4-4 6-1 1-1 1-1 1-2 3-4 6-6 9 0 0-1 1-1 2-1 2-3 4-4 6 0 1-1 2-2 3-1 2-2 3-3 5 0 1-1 2-1 3-1 1-1 2-1 2-1 1-1 2-2 3-1 2-1 3-2 5-33 67-38 150 5 213l33 44z m223 69c-25-47-1-105 37-135 7-5 14-10 22-14 4-2 8-3 12-5 3-1 7-2 11-3 42-11 77-4 98 28-6-10-30-74-117-57-2 1-4 1-6 2-1 0-1 0-2 1-1 0-2 1-4 1-31 12-59 38-72 70-12 31-11 65 7 93l14 19z m0 0" horiz-adv-x="1000" />

<glyph glyph-name="python" unicode="&#xe807;" d="M489 850c-41 0-80-4-114-10-101-18-120-55-120-124l0-91 239 0 0-30-239 0-89 0c-69 0-130-42-149-121-22-91-23-147 0-242 17-71 57-121 127-121l82 0 0 109c0 78 68 148 149 148l238 0c66 0 119 55 119 121l0 227c0 65-54 114-119 124-41 7-84 10-124 10z m-129-73c24 0 44-21 44-46 0-25-20-45-44-45-25 0-45 20-45 45 0 25 20 46 45 46z m402-182l0-106c0-82-70-151-149-151l-238 0c-66 0-120-56-120-121l0-228c0-64 57-102 120-121 75-22 148-26 238 0 60 18 119 53 119 121l0 91-238 0 0 31 238 0 120 0c69 0 95 48 119 121 25 74 24 146 0 242-17 69-50 121-119 121l-90 0z m-134-575c25 0 45-21 45-46 0-25-20-45-45-45-25 0-45 20-45 45 0 25 20 46 45 46z" horiz-adv-x="989" />

<glyph glyph-name="react" unicode="&#xe808;" d="M562 121c-141 0-264 17-356 48-60 21-111 48-147 79-39 33-59 69-59 103 0 67 73 132 195 174 100 35 231 54 367 54 134 0 263-19 362-53 58-20 107-46 142-75 38-31 58-66 58-100 0-69-82-139-213-182-93-31-217-48-349-48z m0 410c-129 0-257-19-351-51-112-39-163-93-163-129 0-37 54-96 173-136 88-30 206-46 341-46 127 0 246 16 334 46 124 41 180 99 180 136 0 19-14 42-41 63-30 26-74 49-126 67-95 32-218 50-347 50z m-228-680c-20 0-38 4-53 13-58 33-78 129-53 256 19 104 68 226 136 345 67 116 147 218 227 287 46 40 93 70 136 85 46 17 86 17 115 0 60-34 80-140 52-275-20-96-67-212-133-326-71-122-147-221-220-285-48-42-97-72-142-88-23-8-45-12-65-12z m51 602l20-12c-64-112-112-233-130-330-23-117-1-188 30-206 7-4 17-6 29-6 40 0 103 25 175 88 70 61 142 155 210 273 64 110 109 221 128 312 26 127 3 205-29 224-16 9-43 8-75-4-37-14-79-40-121-77-75-65-152-163-217-275l-20 13z m405-603c-54 0-123 33-195 95-81 69-163 172-231 290l0 0c-67 116-115 237-135 340-12 61-15 116-7 161 9 48 28 83 58 100 59 35 161-1 264-93 73-65 150-164 216-278 71-122 118-237 137-333 12-62 14-119 6-166-10-50-30-85-60-103-15-9-33-13-53-13z m-384 409c64-112 145-213 220-278 90-77 162-94 193-76 32 18 56 95 31 218-18 90-63 200-131 318-64 110-137 205-207 266-97 87-176 106-208 87-16-9-29-33-34-66-7-39-5-89 6-143 19-99 65-214 130-326l0 0z" horiz-adv-x="1124" />

<glyph glyph-name="rest" unicode="&#xe809;" d="M500 850c-276 0-500-224-500-500 0-276 224-500 500-500 276 0 500 224 500 500 0 276-224 500-500 500z m0-75c235 0 425-190 425-425 0-235-190-425-425-425-235 0-425 190-425 425 0 235 190 425 425 425z m-331-509q-11 0-19 2-8 2-13 5-5 4-7 11-3 6-3 15 0 6 0 10 1 5 1 9 1 4 1 8 0 4 0 9 0 3-1 6-2 3-5 5-3 3-9 4-6 1-15 2l0 22q9 0 15 2 6 1 9 4 3 2 5 5 1 2 1 5 0 6 0 10 0 4-1 8 0 4-1 8 0 5 0 11 0 9 3 15 2 7 7 10 5 4 13 6 8 2 19 2l19 0 0-21-9 0q-6 0-10 0-4-1-6-2-3-2-4-5 0-2 0-7 0-8 0-16 0-9 0-19 0-13-5-19-6-6-18-8l0-1q12-2 18-7 5-6 5-20 0-9 0-18 0-8 0-17 0-4 0-7 1-3 4-4 2-1 6-2 4-1 10-1l9 0 0-20-19 0z m56 34l0 147 54 0q12 0 22-3 11-2 19-7 8-6 13-15 5-9 5-23 0-15-7-26-6-10-17-16l32-57-44 0-25 49-14 0 0-49-38 0z m38 80l13 0q24 0 24 19 0 10-6 13-6 4-18 4l-13 0 0-36z m102-80l0 147 100 0 0-33-61 0 0-23 52 0 0-32-52 0 0-26 63 0 0-33-102 0z m183-2q-14 0-29 5-15 5-28 16l22 26q9-6 18-10 10-4 20-4 8 0 12 2 4 3 4 7 0 3-2 5-1 2-4 4-2 1-6 3-4 1-9 4l-18 7q-7 2-12 6-6 4-10 9-4 5-7 11-2 7-2 15 0 9 4 17 4 9 11 15 7 6 18 10 10 3 22 3 14 0 27-4 13-5 23-15l-19-25q-8 6-15 8-7 3-18 3-6 0-10-2-4-3-4-8 0-2 1-4 2-2 5-4 3-1 7-3 4-1 10-3l17-7q15-6 22-16 8-9 8-25 0-9-3-17-4-9-12-15-7-7-18-10-11-4-25-4z m116 2l0 114-42 0 0 33 123 0 0-33-42 0 0-114-39 0z m111-34l0 20 9 0q6 0 10 1 4 1 6 2 3 1 3 4 1 3 1 7 0 9 0 17 0 9 0 18 0 14 5 20 6 5 18 7l0 1q-12 2-18 8-5 6-5 19 0 10 0 19 0 8 0 16 0 5-1 7 0 3-3 5-2 1-6 2-4 0-10 0l-9 0 0 21 19 0q22 0 32-8 10-7 10-25 0-6 0-11-1-4-1-8-1-4-1-8 0-4 0-10 0-3 1-5 1-3 5-5 3-3 9-4 6-2 15-2l0-22q-9-1-15-2-6-1-9-4-4-2-5-5-1-3-1-6 0-5 0-9 0-4 1-8 0-4 1-9 0-4 0-10 0-9-2-15-3-7-8-11-5-3-13-5-8-2-19-2l-19 0z" horiz-adv-x="1000" />

<glyph glyph-name="sass" unicode="&#xe80a;" d="M762 573c-2 12-7 24-14 34-26 35-71 48-112 52-46 6-94 3-139-8-13-4-25-7-37-12-29-10-56-25-81-42-24-16-47-33-68-52-27-24-48-55-61-89-7-19-12-41-8-66 4-23 14-43 26-60 11-17 25-31 38-43 25-23 49-42 68-62-7-3-14-6-22-9-6-4-13-7-19-10-7-4-13-9-19-13-11-9-22-20-33-32-10-13-20-27-24-46-1-5-2-10-2-16 0-4 0-9 1-14 1-10 5-22 13-31 8-10 20-17 29-19 10-4 20-4 31-5 20 0 38 6 55 15 17 9 32 19 46 35 7 8 12 17 17 27 4 9 7 18 10 28 4 19 4 42-2 63-3 8-6 14-9 21 3 1 7 3 11 4 30 9 68 11 97-4 8-4 14-10 22-16 5-4 8-10 12-16 7-12 7-29 2-43-3-6-5-13-11-18-2-1-15-7-13-12 1-4 6-7 21 2 31 18 35 60 18 89-14 23-36 38-61 45-14 4-29 7-43 7-13 1-26 0-38-2-4-1-33-11-34-10-1 2-3 4-5 7-25 29-54 51-78 74-21 20-46 46-48 77-2 37 30 73 55 97 8 8 17 16 25 23 40 30 90 55 137 71 14 5 28 8 42 11 19 5 40 7 60 7 28 0 57-5 80-22 15-10 22-26 22-44-1-52-51-93-94-112-49-21-114-40-153-22-19 8-37 24-42 16-4-7 37-35 42-37 38-20 98-15 144-1 51 16 97 49 125 95 16 26 26 58 21 88z m-355-412c0-10-2-22-6-32-4-10-8-17-15-25-14-15-33-25-48-27-2 0-4 0-6 0-2 0-4 0-6 1-3 1-7 2-8 3-2 1-3 2-4 4-1 2-3 5-3 9 0 1 0 4-1 6 1 1 0 3 1 5 0 3 1 7 2 11 3 8 8 16 13 24 11 14 24 29 37 38 11 7 23 14 34 20 7-12 11-24 10-37z m593 189a500 500 0 0 0-500-500 500 500 0 0 0-500 500 500 500 0 0 0 500 500 500 500 0 0 0 500-500z" horiz-adv-x="1000" />

<glyph glyph-name="vue" unicode="&#xe80b;" d="M348 850c-28 0-63 0-106 0l-242-1 288-496c76-131 145-251 196-339 51-88 83-143 86-147 2-4 5-8 8-10 1-2 3-3 5-5 2-1 7-3 13-1l0 0c6 2 5 3 6 3 1 1 1 1 1 2 1 0 1 1 1 1 0 1 1 1 2 2 1 2 2 5 4 8 4 7 10 16 18 29 14 25 35 60 61 104 52 89 122 210 200 343l293 506-242 1c-85 0-140 0-173 0-17-1-29-1-37-1-4-1-7-1-9-1-2 0-3-1-4-1-2-1-4-1-7-4-3-2-2-2-3-3 0-1-1-2-1-2-1-2-3-5-5-7-3-6-8-14-14-24-12-20-27-47-44-76-17-28-32-54-44-73-3-6-5-9-8-13-3 4-5 7-8 13-12 19-27 45-44 73-17 29-32 56-44 76-6 10-11 18-14 24-2 2-4 5-5 7 0 0-1 1-1 2-1 1 0 1-2 3-4 3-6 3-8 4-1 0-2 1-4 1-2 0-5 0-9 1-8 0-20 0-36 1-17 0-39 0-68 0z m-93-28c1-3 75-132 166-289 104-179 167-286 170-286 3 0 67 107 170 286 91 157 165 286 166 289 5 0 8 0 13-1l193 0-269-464c-77-133-148-254-199-342-26-44-47-80-62-105-6-9-9-16-13-22-4 7-33 56-81 140-51 88-121 208-197 339l-263 454 193 0c5 1 8 1 13 1z" horiz-adv-x="1182" />

<glyph glyph-name="webpack" unicode="&#xe80c;" d="M286-28c-116 68-213 124-215 126-4 4-4 25-4 254l1 250 215 124c118 68 216 124 218 124 3 0 101-56 219-124l215-124 0-250c1-235 1-250-3-254-3-2-86-51-186-108-99-57-194-112-211-122-16-10-32-18-34-18-2 0-99 55-215 122z m209 14l-1 81 12 6c21 9 20 14 22-81 0-46 2-85 3-86 1-1 85 46 186 105l185 106 0 222c0 134-1 221-2 221-2 0-36-19-75-42-40-23-75-42-77-42-2 0-3 2-3 6 0 3-2 8-5 11-3 2-6 6-6 8 0 1 34 22 75 46 41 23 75 43 75 44 0 1-85 51-189 111-128 74-191 109-195 108-8-1-378-214-378-218 0-2 33-22 74-44 40-23 75-42 76-44 2-2 0-4-5-8-4-3-8-8-9-12-2-5-3-5-9-3-3 2-36 20-74 41-37 21-69 38-71 38-2 0-3-10-3-39 0-80 7-401 8-402 2-3 383-214 386-214 1 0 1 33 0 81z m-103 186c-51 28-94 53-96 55-6 6-9 225-4 225 2 0 47-24 99-53l96-53 2-39c1-22 1-73 2-113 0-58-1-74-3-74-2 0-45 23-96 52z m132-51c-1 2-2 51-3 111-2 92-1 109 2 112 6 5 186 108 188 108 2 0 2-47 2-112l0-113-9-6c-17-10-170-99-174-100-3-1-5-1-6 0z m-116 303c-53 30-96 55-98 56-2 2-2 4 1 6 9 7 186 108 190 108 5 0 184-102 191-109 2-2 4-4 3-5-3-3-188-109-190-109-1 0-45 24-97 53z" horiz-adv-x="1000" />

<glyph glyph-name="html5" unicode="&#xe80d;" d="M500 850c-276 0-500-224-500-500 0-276 224-500 500-500 276 0 500 224 500 500 0 276-224 500-500 500z m-187-202l30 0 0-29 26 0 0 29 29 0 0-87-29 0 0 29-26 0 0-29-30 0 0 87z m98 0l80 0 0-29-25 0 0-58-29 0 0 58-26 0 0 29z m93 0l30 0 19-31 19 31 30 0 0-87-29 0 0 43-20-31-1 0-20 31 0-43-28 0 0 87z m112 0l0 0 29 0 0-59 41 0 0-28-70 0 0 87z m-344-125l457 0-42-467-187-52-187 52-41 467z m85-96l15-173 128 0 71 0-7-74-64-17 0 0-64 17-4 48-57 0 8-92 117-33 0 0 117 33 16 175-133 0-76 0-5 59 81 0 138 0 5 57-143 0-143 0z" horiz-adv-x="1000" />

<glyph glyph-name="amazon" unicode="&#xe80e;" d="M500 850c-276 0-500-224-500-500 0-276 224-500 500-500 276 0 500 224 500 500 0 276-224 500-500 500z m44-285c-10 14-27 21-44 21l-5 0c-27-3-52-18-59-48-1-7-5-14-13-15l-76 10c-6 1-14 5-11 16 16 86 89 116 159 120l16 0c38 0 87-11 118-40 38-35 34-83 34-134l0-123c0-36 15-53 30-72 4-7 6-15-1-20-15-14-44-38-60-52-5-4-12-4-19-1-26 22-30 31-45 51-26-27-47-42-73-50-17-4-34-7-56-7-65 0-117 41-117 121 0 64 34 108 84 128 26 12 58 18 89 22 20 3 41 4 58 5l0 11c0 19 2 41-9 57z m206-428c-8-6-17-12-25-17l0 0c-65-41-148-66-221-67-2 0-4 0-7 0-115 0-200 63-278 130-4 4-7 8-7 13 0 4 2 8 5 10 2 3 6 5 10 5 3 0 6-1 9-3 83-46 166-93 267-93 2 0 4 0 7 0 64 2 133 17 199 44l0 0 6 3 5 2c3 1 7 3 10 4 3 1 6 2 9 2 10 0 19-7 19-18 0-6-3-11-8-15z m37-28c-3-3-6-4-11-4l0 0c-3 0-6 1-9 3-3 3-4 7-4 10 0 2 0 4 1 6 3 8 8 19 11 31 4 12 7 24 7 31 0 1 0 3 0 3-1 0-1 0-1 0-1 1-2 1-4 2-3 0-8 1-14 1-7 0-16-1-25-2-10-1-18-2-24-3l0-1-1 0c-1 0-1 0-2 0-3 0-6 1-9 3-3 3-5 7-5 10 1 6 4 10 8 13 7 5 14 9 22 13l0 0 7 2 0 0 12 4 0-1c11 3 23 4 34 4 15 0 27-2 35-5 3-1 6-2 8-5l1-1 0 0c3-4 4-9 4-16l0-3c0-25-10-68-41-95z m-234 326c-20 0-41-2-58-6-33-9-59-30-59-73 0-34 18-57 48-57 4 0 8 1 11 1 17 4 34 16 43 35 17 28 15 52 15 83l0 17z" horiz-adv-x="1000" />

<glyph glyph-name="bootstrap" unicode="&#xe80f;" d="M93-129c-22 11-51 38-66 59l-27 38 0 382 0 382 27 38c15 21 44 48 66 59 39 21 40 21 403 21 363 0 363 0 402-21 22-11 52-38 66-59l27-38 0-382 0-382-27-38c-14-21-44-48-66-59-39-21-39-21-402-21-363 0-364 0-403 21z m461 229c59 10 88 27 119 72 17 26 20 39 17 83-3 45-8 57-31 77-15 14-33 27-39 29-9 3-6 11 12 32 64 77 28 170-73 189-62 12-203 12-225 0-16-9-17-21-17-241 0-211 1-232 16-240 20-12 151-12 221-1z m-121 147l0 58 58 0c49 0 59-2 71-19 8-11 14-29 14-39 0-10-6-27-14-38-12-17-22-20-71-20l-58 0 0 58z m2 199l3 51 37 3c61 5 92-40 60-85-11-16-22-20-58-20l-45 0 3 51z" horiz-adv-x="991" />

<glyph glyph-name="css3" unicode="&#xe810;" d="M622 588l0 32-27 23 27 0 0 32-72 0 0-32 27-23-27 0 0-32z m-99 0l0 32-27 23 27 0 0 32-72 0 0-32 27-23-27 0 0-32z m-171 0l29 0 43 0 0 32-43 0 0 23 43 0 0 32-43 0-29 0-3 0 0-87z m-90-39l43-472 196-57 193 54 45 475-477 0z m90-96l298 0-7-58-145-64 139 0-14-175-122-34-122 36-6 90 58 1 3-48 68-20 68 20 9 75-206 1-7 56 144 60-151 1-7 59z m648-103a500 500 0 0 0-500-500 500 500 0 0 0-500 500 500 500 0 0 0 500 500 500 500 0 0 0 500-500z" horiz-adv-x="1000" />

<glyph glyph-name="linkedin-circled" unicode="&#xe811;" d="M366 178l-83 0 0 271 83 0 0-271z m-86 347q0 18 13 30t32 13q45 0 45-43 0-41-45-41t-45 41z m298-68q47 0 72-33t25-86l0-160-85 0 0 151q0 60-41 60-21 0-35-14t-13-40l0-157-85 0 0 185q0 70-1 86l73 0 5-36q28 44 85 44z m-109-576q-194 0-331 138t-138 331 138 332 331 137 331-137 138-332-138-331-331-138z m0 834q-151 0-258-107t-107-258 107-258 258-107 258 107 107 258-107 258-258 107z" horiz-adv-x="938" />

<glyph glyph-name="pin" unicode="&#xe812;" d="M911 574q0-61-31-113t-84-82q2-19 2-27 0-138-98-237t-237-98q-103 0-186 56l-259-170 170 259q-60 88-60 190 0 138 98 236t237 99q6 0 18-2t13-2q30 52 81 83t113 31q92 0 158-66t65-157z m-447-445q92 0 157 65t65 157q-26 0-57 8l-88-88q-32-32-78-32t-79 32-32 79 32 80l89 89q-9 31-9 55l0 1-1 0q-92 0-157-66t-66-158 66-157 158-65z m224 333q45 0 78 33t33 78-33 79-78 33-79-33-33-79 33-78 79-33z" horiz-adv-x="928" />

<glyph glyph-name="down-circled" unicode="&#xe813;" d="M460 810q190 0 325-135t135-325-135-325-325-135-325 135-135 325 135 325 325 135z m0-820q148 0 254 106t106 254q0 150-106 255t-254 105-254-105-106-255q0-148 106-254t254-106z m90 554l0-206 112 0-202-190-202 190 112 0 0 206 180 0z" horiz-adv-x="920" />

<glyph glyph-name="left-circled" unicode="&#xe814;" d="M920 350q0-190-135-325t-325-135-325 135-135 325q0 192 135 326t325 134 325-134 135-326z m-820 0q0-148 106-254t254-106 254 106 106 254q0 150-106 255t-254 105-254-105-106-255z m552-90l-204 0 0-112-190 202 190 204 0-114 204 0 0-180z" horiz-adv-x="920" />

<glyph glyph-name="right-circled" unicode="&#xe815;" d="M0 350q0 190 135 325t325 135 325-135 135-325-135-325-325-135-325 135-135 325z m820 0q0 150-105 255t-255 105q-148 0-254-105t-106-255q0-148 106-254t254-106q150 0 255 106t105 254z m-552 90l204 0 0 114 190-204-190-202 0 112-204 0 0 180z" horiz-adv-x="920" />

<glyph glyph-name="up-circled" unicode="&#xe816;" d="M460-110q-190 0-325 135t-135 325q0 192 135 326t325 134 325-134 135-326q0-190-135-325t-325-135z m0 820q-148 0-254-105t-106-255q0-148 106-254t254-106q150 0 255 106t105 254q0 150-105 255t-255 105z m-90-552l0 204-112 0 202 192 202-192-112 0 0-204-180 0z" horiz-adv-x="920" />

<glyph glyph-name="github" unicode="&#xf056;" d="M0 350q0-130 63-235 63-109 171-171t235-63q127 0 235 63 109 63 171 171t62 235q0 129-62 235-63 109-171 171t-235 62q-130 0-235-63-109-63-171-171t-63-234z m78 0q0 78 31 151t84 125q53 53 125 84t151 30 150-30 126-84q53-53 83-125t31-151q0-84-34-160t-97-132-142-80v138q0 51-42 80 103 9 150 52t48 136q0 72-45 121 9 27 9 51 0 36-16 67-33 0-59-11t-63-37q-46 10-94 10-55 0-103-11-37 27-63 38t-61 11q-16-31-16-67 0-25 9-51-45-48-45-121 0-93 48-136t151-52q-27-19-38-54-24-8-50-8-19 0-34 8-4 3-8 5t-7 7-7 6-6 8-5 7-6 7-5 7q-23 30-55 30-17 0-17-7 0-3 9-10 15-13 16-14 12-10 13-12 14-18 22-39 27-61 93-61 11 0 42 5v-103q-80 25-142 80t-96 132-35 160z" horiz-adv-x="937.5" />

<glyph glyph-name="skype" unicode="&#xf17e;" d="M655 257q0 28-11 51t-27 38-41 27-46 19-49 13l-58 14q-17 4-25 6t-19 6-17 9-9 12-4 16q0 43 80 43 24 0 43-6t30-16 21-19 23-16 27-7q26 0 42 18t16 43q0 31-32 55t-79 38-101 13q-38 0-74-9t-67-26-49-48-19-72q0-34 10-60t32-42 44-27 58-18l81-20q51-12 63-20 18-11 18-34 0-21-23-36t-58-14q-29 0-51 9t-37 22-25 25-26 21-30 9q-28 0-42-17t-14-41q0-52 68-88t162-37q41 0 78 10t69 30 49 52 19 74z m202-121q0-89-63-152t-151-63q-73 0-131 45-43-9-83-9-80 0-153 31t-126 84-83 125-31 153q0 41 9 84-45 58-45 130 0 89 63 152t151 63q73 0 131-45 43 9 84 9 79 0 152-31t126-84 84-125 30-153q0-41-8-84 44-58 44-130z" horiz-adv-x="857.1" />
</font>
</defs>
</svg>
