<?xml version="1.0" encoding="UTF-8" standalone="no"?>
<svg
   xmlns:dc="http://purl.org/dc/elements/1.1/"
   xmlns:cc="http://creativecommons.org/ns#"
   xmlns:rdf="http://www.w3.org/1999/02/22-rdf-syntax-ns#"
   xmlns:svg="http://www.w3.org/2000/svg"
   xmlns="http://www.w3.org/2000/svg"
   viewBox="0 0 111 112"
   height="112"
   width="111"
   version="1.1"
   id="svg2">
  <metadata
     id="metadata8">
    <rdf:RDF>
      <cc:Work
         rdf:about="">
        <dc:format>image/svg+xml</dc:format>
        <dc:type
           rdf:resource="http://purl.org/dc/dcmitype/StillImage" />
        <dc:title></dc:title>
      </cc:Work>
    </rdf:RDF>
  </metadata>
  <defs
     id="defs6" />
  <path
     id="path3338"
     d="M 10.407284,109.67323 C 7.983278,108.3935 4.65,105.42974 3,103.08709 L 0,98.827722 0,56.000002 0,13.172284 3,8.912915 C 4.65,6.570262 7.983278,3.606498 10.407284,2.326773 14.811879,0.001419 14.839382,0 55.499999,0 96.160619,0 96.188119,0.0014 100.59272,2.326773 103.01672,3.606498 106.35,6.570262 108,8.912915 l 3,4.259369 0,42.827718 0,42.82772 -3,4.259368 c -1.65,2.34265 -4.98328,5.30641 -7.40728,6.58614 C 96.188119,111.99858 96.160619,112 55.499999,112 14.839382,112 14.811879,111.999 10.407284,109.67323 Z M 61.994619,84.006822 c 6.66507,-1.09138 9.87058,-3.03689 13.34388,-8.09877 1.9661,-2.86532 2.27272,-4.3474 1.92544,-9.3067 -0.35346,-5.04747 -0.85345,-6.29213 -3.4649,-8.62547 -1.67851,-1.49975 -3.66263,-2.93041 -4.40914,-3.17925 -0.99817,-0.33272 -0.64451,-1.29955 1.3366,-3.65397 7.20847,-8.566781 3.1854,-18.978439 -8.16503,-21.131005 -6.94314,-1.316739 -22.65038,-1.302033 -25.12721,0.02353 -1.83596,0.98257 -1.93426,2.352237 -1.93426,26.950305 0,23.62611 0.15457,26.00516 1.75,26.93441 2.24451,1.30731 16.97569,1.35905 24.74462,0.0869 z m -13.49462,-16.50682 0,-6.5 6.4433,0 c 5.5247,0 6.66523,0.31685 8,2.22251 0.85618,1.22237 1.5567,3.14725 1.5567,4.27749 0,1.13024 -0.70052,3.05512 -1.5567,4.27749 -1.33477,1.90566 -2.4753,2.22251 -8,2.22251 l -6.4433,0 0,-6.5 z m 0.2001,-22.250002 0.2999,-5.75 4.19518,-0.304819 c 6.84212,-0.497144 10.3345,4.462032 6.74812,9.582313 C 58.688059,50.569588 57.419609,51 53.393389,51 l -4.9932,0 0.29991,-5.75 z"
     style="fill:#000000" />
</svg>
