<?xml version="1.0" encoding="UTF-8" standalone="no"?>
<svg
   xmlns:dc="http://purl.org/dc/elements/1.1/"
   xmlns:cc="http://creativecommons.org/ns#"
   xmlns:rdf="http://www.w3.org/1999/02/22-rdf-syntax-ns#"
   xmlns:svg="http://www.w3.org/2000/svg"
   xmlns="http://www.w3.org/2000/svg"
   xml:space="preserve"
   width="53.762001"
   viewBox="0 0 53.762001 53.762001"
   version="1.1"
   id="Layer_1"
   height="53.762001"
   enable-background="new 0 0 53.763 53.763"><metadata
     id="metadata19"><rdf:RDF><cc:Work
         rdf:about=""><dc:format>image/svg+xml</dc:format><dc:type
           rdf:resource="http://purl.org/dc/dcmitype/StillImage" /><dc:title></dc:title></cc:Work></rdf:RDF></metadata><defs
     id="defs17" /><g
     id="g3346"><path
       d="m 33.46,14.167 0,-1.709 -1.479,-1.233 1.479,0 0,-1.708 -3.875,0 0,1.708 1.437,1.233 -1.437,0 0,1.709 z m -5.322,0 0,-1.709 -1.479,-1.233 1.479,0 0,-1.708 -3.875,0 0,1.708 1.437,1.233 -1.437,0 0,1.709 z m -9.199,0 1.542,0 2.333,0 0,-1.709 -2.333,0 0,-1.233 2.333,0 0,-1.708 -2.333,0 -1.542,0 -0.166,0 0,4.65 z m -4.837436,2.083107 2.316407,25.416016 10.507812,3.039063 10.40625,-2.914063 2.417969,-25.541016 -25.648438,0 z m 4.835938,5.208985 15.980469,0 -0.335938,3.082031 -7.820312,3.476563 7.5,-0.04883 -0.771485,9.40625 -6.55664,1.833985 -6.546875,-1.917969 -0.333985,-4.832031 3.125,-0.04297 0.166016,2.542969 3.636719,1.082031 3.65625,-1.041016 0.5,-4.041015 -11.083985,-0.04297 -0.394531,-3.03125 7.769531,-3.244141 -8.138672,-0.05664 -0.351562,-3.125 z m 34.824501,5.509907 a 26.881001,26.881001 0 0 1 -26.881,26.881 A 26.881001,26.881001 0 0 1 1.7290039e-6,26.968999 26.881001,26.881001 0 0 1 26.881003,0.08799846 26.881001,26.881001 0 0 1 53.762003,26.968999 Z"
       style="fill:#000000"
       transform="translate(-1.7290039e-6,-0.08799846)"
       id="polygon13" /></g></svg>