<?xml version="1.0" encoding="UTF-8" standalone="no"?>
<svg
   xmlns:dc="http://purl.org/dc/elements/1.1/"
   xmlns:cc="http://creativecommons.org/ns#"
   xmlns:rdf="http://www.w3.org/1999/02/22-rdf-syntax-ns#"
   xmlns:svg="http://www.w3.org/2000/svg"
   xmlns="http://www.w3.org/2000/svg"
   id="svg2"
   version="1.1"
   width="400"
   height="400"
   viewBox="0 0 400 400">
  <metadata
     id="metadata8">
    <rdf:RDF>
      <cc:Work
         rdf:about="">
        <dc:format>image/svg+xml</dc:format>
        <dc:type
           rdf:resource="http://purl.org/dc/dcmitype/StillImage" />
        <dc:title></dc:title>
      </cc:Work>
    </rdf:RDF>
  </metadata>
  <defs
     id="defs6" />
  <path
     style="fill:#000000"
     d="m 43.808065,399.84747 c -0.33992,-0.55 -1.61667,-1 -2.83723,-1 -1.22056,0 -5.52465,-1.58409 -9.56464,-3.52021 -9.07855,-4.35078 -19.35487,-14.31576 -23.3584309,-22.65075 -6.06208,-12.62061 -5.7397,-2.96962 -5.7397,-171.82904 0,-168.859435 -0.32238,-159.208447 5.7397,-171.829055 C 12.051325,20.683429 22.327645,10.718448 31.406195,6.3676686 c 4.03999,-1.936116 8.34408,-3.520211 9.56464,-3.520211 1.22056,0 2.49731,-0.45 2.83723,-1 C 44.215785,1.187745 97.210055,0.84745763 199.5419,0.84745763 l 155.1158,0 7.52563,2.59749907 c 17.69965,6.1090955 30.03316,19.1047843 34.67197,36.5334633 2.13935,8.037847 2.13935,313.70024 0,321.73809 -2.19549,8.24878 -6.18186,15.56948 -11.87067,21.7997 -6.47536,7.09163 -13.14312,11.40021 -22.8013,14.73376 l -7.52563,2.5975 -155.1158,0 c -102.331845,0 -155.326115,-0.34029 -155.733835,-1 z m 209.736835,-54.25 c 3.99474,-2.3375 10.6885,-7.625 14.87503,-11.75 6.27472,-6.18251 8.41099,-9.16882 12.16102,-17 9.25915,-19.33585 9.87435,-26.12596 9.51325,-105 l -0.28614,-62.5 -21.5,0 -21.5,0 -0.62031,63 c -0.49856,50.63441 -0.91971,64.47209 -2.14567,70.5 -4.31396,21.21123 -13.60235,33.85851 -31.98402,43.55015 -3.7125,1.9574 -6.75,4.0053 -6.75,4.55089 0,1.26549 2.14188,2.42989 21,11.4164 8.525,4.06243 16.50658,7.40792 17.73684,7.4344 1.23027,0.0265 5.50527,-1.86434 9.5,-4.20184 z m -65.86669,-55.76144 c 13.43743,-1.30675 29.85773,-4.0544 31.37985,-5.25088 0.9853,-0.7745 1.25,-22.42546 1.25,-102.24349 l 0,-101.26094 -2.25,-0.602977 c -3.33083,-0.892628 -39.04614,-0.729145 -40.48588,0.185319 -0.9304,0.590951 -1.30117,8.786312 -1.5,33.155858 l -0.26412,32.37087 -18.5,0.14277 c -20.87303,0.16108 -27.32335,1.47937 -40.48367,8.27387 -10.17948,5.25554 -22.827435,18.19907 -27.796205,28.44579 -5.43134,11.20066 -7.83479,22.46394 -7.81452,36.62128 0.0255,17.83376 3.08028,30.27644 10.03242,40.86441 11.137065,16.96151 29.011455,26.50115 55.561975,29.65368 6.49211,0.77086 31.52669,0.55306 40.87015,-0.35556 z m -41.16519,-36.88279 c -7.76605,-2.68243 -12.1954,-6.67302 -16.18669,-14.58324 -3.16851,-6.27959 -3.51591,-7.82373 -3.86168,-17.16443 -0.55041,-14.86892 1.91006,-22.58475 9.67953,-30.35422 6.15394,-6.15394 11.24655,-8.46043 21.16388,-9.58534 6.25428,-0.70941 16.98971,0.9638 18.17661,2.83299 1.36634,2.15176 1.00888,68.16298 -0.37661,69.54847 -1.99516,1.99516 -22.23121,1.50388 -28.59504,-0.69423 z m 143.56422,-149.87533 0.26919,-22.269565 -21.76919,0.269556 -21.76918,0.269556 -0.27097,20.974163 c -0.14903,11.5358 -0.0472,21.55728 0.22627,22.26997 0.39018,1.01679 5.07776,1.23767 21.77097,1.02584 l 21.27373,-0.26996 0.26918,-22.26956 z"
     id="path3338" />
</svg>
