<?xml version="1.0" encoding="UTF-8" standalone="no"?>
<svg
   xmlns:dc="http://purl.org/dc/elements/1.1/"
   xmlns:cc="http://creativecommons.org/ns#"
   xmlns:rdf="http://www.w3.org/1999/02/22-rdf-syntax-ns#"
   xmlns:svg="http://www.w3.org/2000/svg"
   xmlns="http://www.w3.org/2000/svg"
   viewBox="0 0 500 500"
   height="500"
   width="500"
   version="1.1"
   id="svg2">
  <metadata
     id="metadata8">
    <rdf:RDF>
      <cc:Work
         rdf:about="">
        <dc:format>image/svg+xml</dc:format>
        <dc:type
           rdf:resource="http://purl.org/dc/dcmitype/StillImage" />
        <dc:title></dc:title>
      </cc:Work>
    </rdf:RDF>
  </metadata>
  <defs
     id="defs6" />
  <path
     id="path3338"
     d="m 347.71873,313.98846 c -27.43944,-5.89547 -44.5151,-26.61806 -42.04374,-51.02323 0.85607,-8.45388 4.67877,-19.68227 9.50662,-27.92371 2.12673,-3.63046 13.01988,-18.75084 24.207,-33.60084 l 20.34021,-27 16.92503,-0.27497 c 9.30876,-0.15124 17.31205,0.11205 17.78509,0.58509 0.95917,0.95917 -27.09751,38.47933 -33.2873,44.51507 -2.15755,2.10385 -3.92282,3.90385 -3.92282,4 0,0.0961 5.7375,0.19076 12.75,0.21026 10.97448,0.0305 13.51591,0.35463 18.25,2.32745 15.84345,6.60238 25.24261,19.71494 26.71423,37.26847 1.86725,22.27246 -10.82749,40.91704 -33.10518,48.62109 -5.54295,1.91685 -9.64247,2.53538 -18.60905,2.80767 -6.325,0.19208 -13.30454,-0.0385 -15.51009,-0.51235 z m 18.94658,-27.13611 c 8.87432,-2.23459 15.51959,-10.76048 15.51959,-19.91167 0,-15.92654 -18.00158,-25.88096 -32.85942,-18.17042 -8.01785,4.16089 -12.54933,14.28997 -10.24588,22.90231 3.27063,12.22852 14.58355,18.45376 27.58571,15.17978 z m -131.93649,26.45898 c -15.24098,-2.36803 -29.7135,-10.82693 -36.97668,-21.61213 -1.93782,-2.87751 -3.52332,-5.70656 -3.52332,-6.28678 0,-0.58022 4.91471,-3.88171 10.92158,-7.33664 l 10.92158,-6.28167 6.82842,6.90035 c 5.40335,5.46028 7.8719,7.19732 11.82842,8.32329 7.32128,2.08352 15.15645,1.76256 20.52184,-0.84066 5.38644,-2.61343 7.97816,-6.55642 7.97816,-12.13783 0,-6.71971 -4.56691,-10.7811 -19.77167,-17.58309 -22.22458,-9.94239 -28.81404,-14.30182 -34.64622,-22.92114 -11.20237,-16.55589 -7.90283,-40.62228 7.14463,-52.11187 15.64903,-11.94893 43.22636,-11.10807 57.90795,1.76566 3.85324,3.37876 9.36531,10.40119 9.36531,11.93149 0,0.9961 -19.41219,13.82037 -20.91998,13.82037 -0.53803,0 -2.20215,-1.60463 -3.69804,-3.56585 -5.23489,-6.86329 -14.59114,-9.32685 -22.0249,-5.79931 -6.34896,3.01278 -8.28259,11.21212 -4.10579,17.41008 2.36215,3.5052 5.66136,5.38377 27.8777,15.87358 19.61429,9.2612 28.24288,18.50381 30.88379,33.0815 3.83462,21.16684 -6.70288,38.78066 -26.97036,45.08194 -6.46188,2.00903 -23.0642,3.29525 -29.54242,2.28871 z M 89.895495,311.274 c -0.36667,-0.36666 -0.66667,-31.19625 -0.66667,-68.51018 l 0,-67.84352 45.250005,0.26019 45.25,0.26019 0.2855,10.9145 c 0.18003,6.88223 -0.11496,11.31553 -0.79847,12 -0.70854,0.70954 -11.54408,1.25867 -31.2855,1.5855 l -30.20153,0.5 -0.2798,13.36163 c -0.18845,8.99913 0.0964,13.81492 0.87244,14.75 0.92982,1.12036 6.25027,1.38837 27.56154,1.38837 l 26.40929,0 -0.28173,11.75 -0.28174,11.75 -27,0.5 -27,0.5 0,16 0,15.99999 31.94983,0.26432 c 24.03214,0.19881 32.14433,0.57054 32.73469,1.5 0.92175,1.4512 1.09484,19.8441 0.20849,22.15389 -0.54125,1.41047 -5.55938,1.58179 -46.33333,1.58179 -25.14949,0 -46.026355,-0.3 -46.393015,-0.66667 z"
     style="fill:#000000" />
  <path
     id="path3340"
     d="M 250,0 C 112.15077,0 0,112.15077 0,250 0,387.84923 112.15077,500 250,500 387.84923,500 500,387.84923 500,250 500,112.15077 387.84923,0 250,0 Z m 0,37.478516 C 367.59433,37.478516 462.52148,132.40567 462.52148,250 462.52148,367.59433 367.59433,462.52148 250,462.52148 132.40567,462.52148 37.478516,367.59433 37.478516,250 37.478516,132.40567 132.40567,37.478516 250,37.478516 Z"
     style="color:#000000;font-style:normal;font-variant:normal;font-weight:normal;font-stretch:normal;font-size:medium;line-height:normal;font-family:sans-serif;text-indent:0;text-align:start;text-decoration:none;text-decoration-line:none;text-decoration-style:solid;text-decoration-color:#000000;letter-spacing:normal;word-spacing:normal;text-transform:none;direction:ltr;block-progression:tb;writing-mode:lr-tb;baseline-shift:baseline;text-anchor:start;white-space:normal;clip-rule:nonzero;display:inline;overflow:visible;visibility:visible;opacity:1;isolation:auto;mix-blend-mode:normal;color-interpolation:sRGB;color-interpolation-filters:linearRGB;solid-color:#000000;solid-opacity:1;fill:#000000;fill-opacity:1;fill-rule:nonzero;stroke:none;stroke-width:37.47852325;stroke-linecap:butt;stroke-linejoin:miter;stroke-miterlimit:4;stroke-dasharray:none;stroke-dashoffset:0;stroke-opacity:1;color-rendering:auto;image-rendering:auto;shape-rendering:auto;text-rendering:auto;enable-background:accumulate" />
</svg>
