<?xml version="1.0" encoding="UTF-8" standalone="no"?>
<svg
   xmlns:dc="http://purl.org/dc/elements/1.1/"
   xmlns:cc="http://creativecommons.org/ns#"
   xmlns:rdf="http://www.w3.org/1999/02/22-rdf-syntax-ns#"
   xmlns:svg="http://www.w3.org/2000/svg"
   xmlns="http://www.w3.org/2000/svg"
   viewBox="0 0 1766.918 1766.918"
   height="1766.918"
   width="1766.918"
   version="1.1"
   id="svg2">
  <metadata
     id="metadata8">
    <rdf:RDF>
      <cc:Work
         rdf:about="">
        <dc:format>image/svg+xml</dc:format>
        <dc:type
           rdf:resource="http://purl.org/dc/dcmitype/StillImage" />
        <dc:title></dc:title>
      </cc:Work>
    </rdf:RDF>
  </metadata>
  <defs
     id="defs6" />
  <path
     id="path3338"
     d="m 850.34125,1767.8145 c -15.615,-0.6897 -40.5463,-2.5195 -53,-3.8901 -32.0246,-3.5243 -71.5862,-11.6481 -90.26656,-18.5358 -19.97805,-7.3661 -34.32903,-17.341 -36.69407,-25.5048 -0.62091,-2.1433 -5.29901,-65.7798 -10.39577,-141.4146 l -9.26684,-137.5176 -25.34077,-42.2466 c -13.93743,-23.2357 -25.04476,-42.5427 -24.68296,-42.9045 0.3618,-0.3618 7.29287,1.4315 15.40239,3.9851 58.70504,18.4853 121.65178,29.3442 202.24458,34.889 23.8275,1.6393 102.7853,1.6367 126,0 79.64615,-5.6296 144.53775,-16.7603 199.50005,-34.2198 21.3282,-6.7752 20.9264,-6.6889 20.2985,-4.36 -0.2811,1.0429 -10.3095,18.5462 -22.2854,38.8962 -17.7711,30.1976 -21.8531,37.8273 -22.2031,41.5 -0.2359,2.475 -4.1728,67.0797 -8.7486,143.566 -6.7515,112.8524 -8.6175,139.6417 -9.899,142.12 -9.7886,18.929 -64.2278,35.9576 -136.66245,42.7481 -32.7739,3.0724 -81.7825,4.3163 -114,2.8935 z m -23,-391.9876 c -84.2685,-4.4443 -145.98827,-14.985 -198.97305,-33.9813 -13.75019,-4.9298 -42.95557,-18.8696 -47.22337,-22.5398 l -2.69642,-2.3189 -13.94036,-134.5 c -7.6672,-73.975 -13.65381,-134.8027 -13.30358,-135.1727 0.35022,-0.37 4.01177,0.4844 8.13677,1.8987 10.70085,3.6689 25.61647,4.272 36.64998,1.4818 17.69417,-4.4744 34.87112,-15.6837 58.50811,-38.1808 7.52784,-7.1649 14.1606,-13.027 14.73945,-13.027 1.59474,0 0.53324,4.1856 -7.60823,30 -11.90877,37.7595 -15.04832,53.8976 -12.38787,63.677 2.11566,7.7769 9.32588,11.3253 15.99978,7.8741 10.52374,-5.4421 17.74875,-22.5342 32.57016,-77.0511 8.90242,-32.7453 13.17675,-47.17177 22.6657,-76.49996 14.50003,-44.81642 18.96913,-63.08723 19.10913,-78.12431 0.098,-10.55782 -1.9246,-15.40818 -7.6027,-18.22882 -10.07127,-5.00297 -19.32943,3.86868 -27.50129,26.35313 -1.69911,4.675 -5.40338,16.15 -8.23171,25.5 -6.03194,19.94056 -9.41707,27.08856 -18.62458,39.32739 -32.03828,42.58603 -72.36606,72.26717 -91.27233,67.17627 -19.81884,-5.3367 -23.5725,-39.90955 -9.42227,-86.78335 14.12324,-46.78439 50.84143,-115.1445 76.82911,-143.03662 15.96525,-17.13524 39.74686,-29.37511 54.18035,-27.88544 10.35606,1.06884 18.10982,7.64315 26.31272,22.31021 10.8391,19.38051 14.9004,23.40752 23.5686,23.36958 6.5554,-0.0287 12.9414,-2.98392 15.4935,-7.1699 10.1722,-16.68435 -17.1746,-57.30741 -48.4219,-71.92981 -8.01156,-3.74905 -17.00362,-5.22202 -26.55371,-4.34969 -36.13729,3.30086 -68.05648,26.60945 -99.24357,72.47136 -19.40105,28.53006 -37.8309,65.49592 -54.32874,108.97043 -5.47755,14.43424 -8.42769,20.02415 -8.42769,15.96875 0,-0.67513 -9.9,-96.63043 -22,-213.23401 -12.1,-116.60359 -22,-213.3412 -22,-214.97248 0,-3.47314 -0.67539,-3.58545 13.41575,2.23096 41.15134,16.98607 126.15898,28.72524 247.08426,34.12121 59.3321,2.64754 198.1477,2.64132 256.49995,-0.0115 127.6442,-5.80296 214.0163,-18.13501 257.7837,-36.80584 4.5559,-1.94354 8.6035,-3.21376 8.9945,-2.82272 0.3911,0.39104 -11.1266,107.43843 -25.5947,237.88309 -19.2976,173.98673 -26.7384,238.05173 -27.9299,240.47385 -0.8933,1.81595 -6.2083,7.717 -11.811,13.11344 -21.2968,20.51251 -50.7152,37.86208 -73.2915,43.22388 -7.5418,1.7912 -8.5977,1.8428 -9.9539,0.4866 -1.3563,-1.3563 -1.2123,-1.9208 1.3572,-5.3215 1.581,-2.0923 11.4405,-12.5822 21.9101,-23.31081 31.5439,-32.32449 43.2511,-48.86283 48.1195,-67.97691 4.6119,-18.10662 -3.2884,-35.25831 -18.2429,-39.60568 -17.6233,-5.12323 -48.823,7.05442 -75.0271,29.28411 -3.5567,3.01717 -6.646,5.30639 -6.8652,5.08715 -0.2193,-0.21924 0.1049,-3.10632 0.7204,-6.41575 0.6154,-3.30942 0.7937,-7.75118 0.3961,-9.87057 -1.456,-7.76094 -10.811,-13.2934 -17.6724,-10.45131 -4.7953,1.9863 -8.3084,8.95796 -15.9082,31.56983 -11.1884,33.28944 -17.5589,44.84951 -33.674,61.1057 -9.9148,10.00173 -16.7658,15.13634 -26.8163,20.09804 -9.57565,4.7273 -35.95335,13.6036 -38.04295,12.8017 -6.7029,-2.5721 -2.3801,-24.33829 12.9525,-65.21885 8.9719,-23.92121 19.92615,-50.35144 41.56275,-100.28116 19.2929,-44.52153 22.033,-51.54729 25.4928,-65.36519 4.7348,-18.90976 3.3068,-32.26371 -3.9283,-36.73526 -4.0867,-2.52569 -6.1749,-2.53379 -10.2653,-0.0398 -8.5238,5.19718 -20.1506,27.06598 -36.73305,69.0916 -5.9526,15.08595 -18.232,46.0756 -27.2875,68.8659 -17.738,44.64188 -24.8315,64.85495 -31.1885,88.87235 -5.555,20.98703 -7.1424,24.35681 -14.2662,30.28531 -12.3616,10.2874 -30.995,16.6224 -37.1091,12.6163 -3.895,-2.5521 -5.6815,-7.6448 -5.6815,-16.1954 0,-12.70547 4.2405,-26.70242 18.8515,-62.2245 11.1203,-27.03534 14.2181,-36.07375 14.8926,-43.45175 0.696,-7.6134 -0.1339,-10.34383 -3.5776,-11.77026 -4.5001,-1.86396 -8.1556,-0.27399 -14.6665,6.37915 -7.5935,7.75939 -15.525,21.63059 -28.0098,48.98549 -5.2547,11.51348 -10.5199,22.49638 -11.7004,24.40645 -6.641,10.74543 -32.8535,39.24472 -43.9471,47.78092 -19.7944,15.2314 -31.4143,11.176 -27.9573,-9.7573 2.4295,-14.71082 12.0638,-40.51073 26.0888,-69.86366 14.3329,-29.99726 16.2424,-40.06211 8.8985,-46.90397 -4.8272,-4.49724 -10.7655,-1.84088 -19.1662,8.57354 -11.1793,13.85902 -24.0123,37.57161 -34.0032,62.83043 -17.4023,43.99626 -19.804,78.33406 -6.3868,91.31696 6.1149,5.9171 11.7882,7.683 24.6835,7.683 13.3385,0 18.7031,-1.408 29.4336,-7.7254 8.8643,-5.2187 22.0904,-17.909 29.9366,-28.7236 l 6.1298,-8.4491 0.259,3.9491 c 1.2329,18.8027 6.3321,28.4578 17.741,33.5918 11.9952,5.3978 33.6372,1.2298 51.3475,-9.889 7.7468,-4.8636 8.7458,-5.2467 9.6471,-3.6998 4.797,8.2331 7.4359,11.1767 12.4088,13.8416 14.8914,7.9799 40.1227,-0.2726 73.47435,-24.0315 4.8827,-3.4784 9.2427,-6.0987 9.6888,-5.823 1.5949,0.9857 -6.1113,20.3144 -23.416,58.7319 -6.28705,13.9577 -13.48115,30.5188 -15.98685,36.8024 -11.746,29.4557 -13.1877,46.0167 -4.4014,50.5603 13.256,6.8549 32.20085,-21.3525 58.59285,-87.2406 31.3736,-78.3248 50.4204,-113.75761 73.3592,-136.46998 13.8826,-13.74566 31.3761,-22.54923 47.0128,-23.65922 6.7756,-0.48096 7.8109,-0.3303 8.4071,1.22338 1.2951,3.37481 -3.1843,9.0603 -23.6437,30.00987 -23.2473,23.80424 -29.3541,30.64754 -37.4807,42.00089 -12.9446,18.08426 -16.9836,31.96246 -13.0785,44.93806 4.4341,14.7334 17.6475,21.0173 37.0784,17.6336 22.3082,-3.8848 57.1915,-21.241 78.8277,-39.2208 3.2106,-2.668 6.2805,-4.8509 6.822,-4.8509 0.6024,0 0.7358,2.0377 0.3436,5.25 -0.3525,2.8875 -8.17,73.0653 -17.3723,155.9507 -14.6985,132.3896 -16.9624,150.9558 -18.632,152.8007 -2.7475,3.036 -27.7682,15.037 -43.4987,20.8639 -51.295,19.0007 -118.6093,30.8512 -199.50005,35.1214 -16.7114,0.8822 -96.6676,1.1355 -111.5,0.3533 z m -23.5,-874.34541 c -166.13488,-5.29433 -291.0918,-24.40367 -311.48942,-47.63527 -6.70918,-7.64133 -2.84895,-14.9231 11.78401,-22.22886 52.94843,-26.43543 239.77991,-43.96349 428.70541,-40.22004 25.3,0.5013 46.3789,0.55016 46.842,0.10857 0.463,-0.44158 9.9552,-37.89078 21.09365,-83.22043 11.1385,-45.32965 20.6596,-83.13205 21.1581,-84.00534 0.7311,-1.28088 184.3594,-196.213604 204.4554,-217.041885 5.2957,-5.4886986 5.7764,-5.751292 10.5282,-5.751292 15.8053,0 43.4685,24.182847 46.0813,40.28372 0.432,2.662236 -0.029,4.010445 -2.3094,6.748109 -1.567,1.881651 -46.2742,49.119568 -99.3492,104.973148 l -96.5,101.55196 -17.277,68.47153 c -9.5023,37.65934 -17.2648,69.23146 -17.25,70.16026 0.032,2.01609 1.9959,2.32393 24.527,3.84519 69.985,4.72526 142.7561,15.84674 176.7735,27.01599 35.5505,11.67266 42.2813,24.67458 19.0098,36.72184 -36.4628,18.87628 -135.1225,33.03208 -273.78335,39.28274 -30.24,1.36318 -159.9041,1.99474 -193,0.94006 z m 215.50005,-26.01758 c 19.426,-1.69924 26,-4.57864 26,-11.38808 0,-2.58139 -0.7484,-4.04082 -3.0767,-6 -3.7454,-3.1515 -4.3878,-3.19152 -6.3464,-0.39527 -1.3838,1.97572 -1.3812,2.36514 0.026,3.92041 1.427,1.57681 1.3854,1.82173 -0.4795,2.81976 -5.9454,3.18193 -58.13345,3.99896 -70.81565,1.10865 -4.7593,-1.08466 -5.2175,-1.43974 -5.5,-4.26199 -0.1694,-1.69332 -1.1228,-3.57413 -2.1187,-4.1796 -1.4885,-0.90502 -2.2445,-0.60172 -4.25,1.70491 -3.1187,3.58715 -3.0906,6.76684 0.093,10.55076 2.9588,3.51634 6.9494,5.01454 16.2391,6.09679 9.9587,1.1602 37.08905,1.17297 50.22825,0.0237 z"
     style="fill:#000000" />
</svg>
