<?xml version="1.0" encoding="UTF-8" standalone="no"?>
<svg
   xmlns:dc="http://purl.org/dc/elements/1.1/"
   xmlns:cc="http://creativecommons.org/ns#"
   xmlns:rdf="http://www.w3.org/1999/02/22-rdf-syntax-ns#"
   xmlns:svg="http://www.w3.org/2000/svg"
   xmlns="http://www.w3.org/2000/svg"
   viewBox="0 0 396.37911 396.37912"
   height="396.37912"
   width="396.37912"
   version="1.1"
   id="svg2">
  <metadata
     id="metadata8">
    <rdf:RDF>
      <cc:Work
         rdf:about="">
        <dc:format>image/svg+xml</dc:format>
        <dc:type
           rdf:resource="http://purl.org/dc/dcmitype/StillImage" />
        <dc:title></dc:title>
      </cc:Work>
    </rdf:RDF>
  </metadata>
  <defs
     id="defs6" />
  <path
     id="path3338"
     d="m 209.1531,394.12992 c -7.51578,-3.59187 -10.68089,-8.75628 -11.15809,-18.20629 -0.44348,-8.78207 0.94353,-13.42147 5.53038,-18.49856 5.92866,-6.56231 16.89565,-8.24205 25.7685,-3.94678 14.13932,6.84473 15.25875,29.95082 1.90571,39.33569 -5.99516,4.21356 -14.87442,4.74355 -22.0465,1.31594 z m 15.97204,-10.55845 c 3.1147,-3.70161 4.10881,-8.89004 2.70338,-14.1094 -1.51613,-5.63048 -4.12265,-7.96207 -8.9009,-7.96207 -3.13971,0 -4.42171,0.60682 -6.5,3.07673 -4.40543,5.23555 -3.10521,17.77582 2.16109,20.84316 3.48766,2.03137 7.92713,1.25255 10.53643,-1.84842 z m 88.45411,11.56014 c -8.86857,-3.30837 -10.07263,-6.23729 -10.55521,-25.67593 -0.44123,-17.7732 -0.23907,-18.28698 6.99079,-17.76679 l 4.3239,0.31111 0.5,15.14819 c 0.43105,13.05919 0.76271,15.43804 2.40499,17.25 2.40131,2.64942 6.00472,2.6921 8.59501,0.10181 1.81453,-1.81453 2,-3.33333 2,-16.37756 0,-16.35453 0.25205,-16.93174 7.1761,-16.43355 l 4.3239,0.31111 0,17.17947 c 0,15.90377 -0.15628,17.38893 -2.10453,20 -1.15749,1.55129 -3.52252,3.65093 -5.25563,4.66587 -4.15336,2.43228 -13.56376,3.09015 -18.39932,1.28627 z M 52.306127,394.27565 c -0.28063,-0.73131 -0.38809,-10.5425 -0.23882,-21.80265 l 0.27142,-20.473 5.5,0 5.5,0 0.29206,7.75 0.29207,7.75 6.95793,0 6.95794,0 0,-6.87756 c 0,-8.13596 0.99777,-9.37809 7.1761,-8.93355 l 4.3239,0.31111 0.26964,21.80049 0.26965,21.80049 -5.76965,-0.30049 -5.76964,-0.30049 -0.29044,-8.25 -0.29044,-8.25 -6.91912,0 -6.91912,0 -0.29044,8.25 -0.29044,8.25 -5.26118,0.30265 c -3.6799,0.21168 -5.41454,-0.097 -5.77142,-1.027 z m 53.199273,0.55768 c -1.26499,-1.26498 -0.76409,-40.83591 0.53333,-42.13333 0.81757,-0.81757 5.60476,-1.2 15.02144,-1.2 13.66043,0 13.83432,0.0283 14.92691,2.42626 0.60802,1.33444 0.8148,3.58444 0.45951,5 -0.62951,2.50819 -0.85886,2.57374 -9.00447,2.57374 -8.80438,0 -11.12166,1.04496 -10.42699,4.70196 0.27462,1.44569 1.61354,1.89602 6.83257,2.29804 l 6.49103,0.5 0.30588,4.21692 c 0.34227,4.71855 -0.12359,5.01054 -8.80588,5.51936 -4.27473,0.25052 -4.5,0.4139 -4.5,3.26372 l 0,3 9.28947,0.5 c 9.51208,0.51198 11.15946,1.27248 11.19522,5.16821 0.0433,4.7179 -0.34386,4.83179 -16.42501,4.83179 -8.37449,0 -15.52635,-0.3 -15.89301,-0.66667 z m 45.04492,0.0449 c -0.39138,-0.39135 -0.71159,-9.80646 -0.71159,-20.92245 0,-16.76861 0.25614,-20.42347 1.50391,-21.45902 2.28191,-1.89383 23.00876,-0.86907 27.23667,1.3466 8.16253,4.27765 9.29699,16.86005 2.06827,22.93936 l -3.30885,2.78272 3.75,6.8601 c 2.0625,3.77306 3.75,7.35834 3.75,7.96729 0,0.68241 -2.22712,1.10717 -5.80525,1.10717 l -5.80524,0 -4.05477,-7.25 c -5.22241,-9.33778 -6.68206,-9.38754 -7.33474,-0.25 l -0.5,7 -5.03841,0.29492 c -2.77113,0.16221 -5.35863,-0.0253 -5.75,-0.41667 z M 171.83873,369.5 c 2.51726,-2.51726 2.50809,-3.49191 -0.057,-6.05697 -1.49262,-1.49262 -3.07018,-1.97275 -5.75,-1.75 -3.38408,0.28129 -3.71984,0.58682 -4.01349,3.65217 -0.17625,1.83985 -0.0779,3.97735 0.21862,4.75 0.82987,2.1626 7.24148,1.76516 9.60184,-0.5952 z m 81.62471,24.4644 c -1.06624,-2.77859 -0.70502,-38.44582 0.41047,-40.53014 0.77504,-1.44817 2.10696,-1.93426 5.3,-1.93426 2.34565,0 4.80482,0.54 5.46482,1.2 0.66,0.66 1.2,3.6225 1.2,6.58333 0,3.02485 0.42308,5.2373 0.96569,5.05 0.53114,-0.18333 3.1352,-3.03333 5.78681,-6.33333 4.69981,-5.84904 4.95586,-6.00773 10.17709,-6.30721 2.94579,-0.16897 5.80132,0.13812 6.34562,0.68242 0.65285,0.65285 -1.25281,3.60729 -5.59971,8.68149 l -6.58934,7.69186 1.90367,3.62572 c 1.04702,1.99415 4.37001,7.67572 7.38441,12.62572 3.0144,4.95 5.12895,9.36191 4.69899,9.80425 -0.42995,0.44234 -3.41285,0.66734 -6.62865,0.5 L 278.4364,395 l -3.54883,-6.11547 c -1.95186,-3.3635 -4.17105,-6.85655 -4.93152,-7.76233 -2.37819,-2.83259 -4.00004,-0.12652 -4.32359,7.21396 L 265.33873,395 l -5.62529,0.29618 c -4.45707,0.23468 -5.75502,-0.0419 -6.25,-1.33178 z M 71.541407,318.06582 c -9.11394,-3.27057 -16.36941,-10.90072 -18.74125,-19.70906 -0.63592,-2.36164 -0.89502,-52.73228 -0.72537,-141.01537 L 52.338727,20 l 2.2022,-4.11647 c 3.38401,-6.3255697 6.64002,-9.7028997 12.46508,-12.9295797 L 72.338727,3.8085939e-7 l 123.500003,0 123.5,0 L 324.67145,2.9539503 c 5.82506,3.22668 9.08107,6.60401 12.46508,12.9295797 l 2.2022,4.11647 0,139.5 0,139.5 -2.95395,5.33272 c -3.22668,5.82506 -6.60401,9.08107 -12.92958,12.46508 l -4.11647,2.2022 -122,0.21425 C 96.475337,319.39139 74.680837,319.19245 71.541407,318.06582 Z M 316.77707,301.67273 c 1.87392,-1.00499 4.2294,-3.36047 5.23439,-5.23439 1.74356,-3.25105 1.82727,-9.52452 1.82727,-136.93834 0,-127.41382 -0.0837,-133.68729 -1.82727,-136.93834 -1.00499,-1.87392 -3.36047,-4.2294 -5.23439,-5.23439 C 313.53266,15.58727 307.75672,15.5 195.83873,15.5 83.920737,15.5 78.144797,15.5873 74.900387,17.32727 c -1.87392,1.00499 -4.2294,3.36047 -5.23439,5.23439 -1.74356,3.25105 -1.82727,9.52452 -1.82727,136.93834 0,127.41382 0.0837,133.68729 1.82727,136.93834 1.00499,1.87392 3.36047,4.2294 5.23439,5.23439 3.24441,1.74 9.02035,1.82727 120.938343,1.82727 111.91799,0 117.69393,-0.0873 120.93834,-1.82727 z m -80.24666,-30.81438 c -0.38042,-0.38043 -0.69168,-22.57133 -0.69168,-49.31313 0,-48.4507 -0.008,-48.63691 -2.25,-53.02539 -3.47704,-6.80563 -7.75485,-8.54245 -20.75,-8.42463 -19.7628,0.17919 -45.28161,6.84085 -72.52433,18.93239 -8.02043,3.55982 -15.01164,6.47241 -15.53603,6.47241 -0.59781,0 -0.85761,-25.6426 -0.69653,-68.75 l 0.25689,-68.75 15.5,0 15.5,0 0.26067,43.96067 c 0.14336,24.17836 0.63456,44.33456 1.09154,44.79154 0.45698,0.45698 4.71012,-0.29329 9.45142,-1.66727 21.70585,-6.2901 47.22964,-9.0365 61.51614,-6.61921 19.33655,3.27176 35.22181,18.40616 39.12086,37.27169 0.72102,3.48865 0.99861,22.11673 0.82351,55.26258 l -0.26414,50 -15.05832,0.27501 c -8.28208,0.15126 -15.36958,-0.0362 -15.75,-0.41666 z M 123.83873,239.5 c 0,-26.41648 0.18762,-30.10664 1.51629,-29.82332 2.4284,0.51781 33.35174,28.16965 33.35174,29.82332 0,1.65367 -30.92334,29.30551 -33.35174,29.82332 -1.32867,0.28332 -1.51629,-3.40684 -1.51629,-29.82332 z M 213.47176,98.71525 c -0.26675,-0.43162 1.56214,-3.91912 4.06421,-7.75 6.2471,-9.56487 12.72006,-23.38974 15.43468,-32.96525 1.24739,-4.4 2.6831,-8.5625 3.19047,-9.25 1.43559,-1.94525 30.54274,-1.76504 31.2944,0.19375 0.94132,2.45305 -3.4255,17.63186 -7.55537,26.26198 -3.97159,8.29938 -10.08343,17.9224 -14.0009,22.04427 -2.03104,2.13701 -2.88678,2.25 -17.04046,2.25 -8.19611,0 -15.12028,-0.35314 -15.38703,-0.78475 z"
     style="fill:#000000" />
</svg>
