<?xml version="1.0" encoding="UTF-8" standalone="no"?>
<svg
   xmlns:dc="http://purl.org/dc/elements/1.1/"
   xmlns:cc="http://creativecommons.org/ns#"
   xmlns:rdf="http://www.w3.org/1999/02/22-rdf-syntax-ns#"
   xmlns:svg="http://www.w3.org/2000/svg"
   xmlns="http://www.w3.org/2000/svg"
   enable-background="new 0 0 64 64"
   height="49.652"
   id="Layer_1"
   version="1.1"
   viewBox="0 0 49.652 49.652"
   width="49.652"
   xml:space="preserve"><metadata
     id="metadata13"><rdf:RDF><cc:Work
         rdf:about=""><dc:format>image/svg+xml</dc:format><dc:type
           rdf:resource="http://purl.org/dc/dcmitype/StillImage" /><dc:title></dc:title></cc:Work></rdf:RDF></metadata><defs
     id="defs11" /><g
     id="g3"
     transform="translate(-7.174,-7.174)"><path
       id="polygon5"
       transform="translate(7.174,7.174)"
       d="M 24.826172 0 C 11.137172 0 4.7369516e-15 11.137172 0 24.826172 C 0 38.515172 11.137172 49.652344 24.826172 49.652344 C 38.515172 49.652344 49.652344 38.515172 49.652344 24.826172 C 49.652344 11.137172 38.515172 4.7369516e-15 24.826172 0 z M 15.5625 10.042969 L 17.007812 10.042969 L 17.007812 11.470703 L 18.328125 11.470703 L 18.328125 10.042969 L 19.771484 10.042969 L 19.771484 14.363281 L 18.328125 14.363281 L 18.328125 12.917969 L 17.007812 12.917969 L 17.007812 14.363281 L 15.5625 14.363281 L 15.5625 10.042969 z M 20.402344 10.042969 L 24.386719 10.042969 L 24.386719 11.476562 L 23.115234 11.476562 L 23.115234 14.365234 L 21.671875 14.365234 L 21.671875 11.476562 L 20.402344 11.476562 L 20.402344 10.042969 z M 25.021484 10.042969 L 26.527344 10.042969 L 27.453125 11.564453 L 28.378906 10.042969 L 29.884766 10.042969 L 29.884766 14.363281 L 28.445312 14.363281 L 28.445312 12.222656 L 27.453125 13.757812 L 27.429688 13.757812 L 26.435547 12.222656 L 26.435547 14.363281 L 25.021484 14.363281 L 25.021484 10.042969 z M 30.601562 10.042969 L 30.603516 10.042969 L 32.046875 10.042969 L 32.046875 12.9375 L 34.078125 12.9375 L 34.078125 14.363281 L 30.601562 14.363281 L 30.601562 10.042969 z M 13.482422 16.259766 L 36.171875 16.259766 L 34.099609 39.429688 L 24.820312 42.003906 L 15.548828 39.429688 L 13.482422 16.259766 z M 17.708984 20.996094 L 18.476562 29.591797 L 24.826172 29.591797 L 28.324219 29.591797 L 27.994141 33.275391 L 24.826172 34.132812 L 24.822266 34.134766 L 21.65625 33.277344 L 21.445312 30.910156 L 18.59375 30.910156 L 19 35.474609 L 24.820312 37.089844 L 24.826172 37.089844 L 30.652344 35.474609 L 31.429688 26.748047 L 24.826172 26.748047 L 21.074219 26.748047 L 20.814453 23.837891 L 24.826172 23.837891 L 31.6875 23.837891 L 31.943359 20.996094 L 24.826172 20.996094 L 17.708984 20.996094 z " /></g></svg>