<?xml version="1.0" encoding="UTF-8" standalone="no"?>
<svg
   xmlns:dc="http://purl.org/dc/elements/1.1/"
   xmlns:cc="http://creativecommons.org/ns#"
   xmlns:rdf="http://www.w3.org/1999/02/22-rdf-syntax-ns#"
   xmlns:svg="http://www.w3.org/2000/svg"
   xmlns="http://www.w3.org/2000/svg"
   viewBox="0 0 416.3356 416.39322"
   height="416.39322"
   width="416.3356"
   version="1.1"
   id="svg2">
  <metadata
     id="metadata8">
    <rdf:RDF>
      <cc:Work
         rdf:about="">
        <dc:format>image/svg+xml</dc:format>
        <dc:type
           rdf:resource="http://purl.org/dc/dcmitype/StillImage" />
        <dc:title></dc:title>
      </cc:Work>
    </rdf:RDF>
  </metadata>
  <defs
     id="defs6" />
  <path
     id="path3338"
     d="m 184.76738,416.21583 c -3.72868,-0.41193 -12.35409,-1.77228 -16.85404,-2.65812 -18.3737,-3.61704 -35.10838,-9.36696 -52.44596,-18.0201 C 103.78474,389.70681 93.097115,383.10693 83.095925,375.54738 38.983565,342.20442 9.9752354,293.24729 2.0861554,238.82784 -0.47171462,221.18346 -0.68658462,201.10342 1.4922754,183.32785 4.3954154,159.64343 10.884085,137.8902 21.402835,116.57785 38.043695,82.86131 62.693305,54.99456 94.317365,34.146873 141.69351,2.914867 200.58382,-7.521602 256.27579,5.444798 c 51.25352,11.93303 96.6053,43.320064 125.88404,87.121776 5.26416,7.875336 9.01947,14.350136 13.3173,22.961276 10.18944,20.41574 16.18911,39.42182 19.88727,63 l 0.82344,5.25 0.10341,23.48643 c 0.0989,22.46748 0.0759,23.70394 -0.53079,28.5 -3.91698,30.96727 -15.41595,61.81103 -32.84988,88.11356 -7.9242,11.95524 -15.05763,20.71896 -25.47723,31.29984 -16.00323,16.25103 -32.94855,28.78932 -52.81599,39.08001 -21.306,11.0358 -45.47307,18.59766 -68.93646,21.57012 -4.39874,0.55725 -6.34535,0.59661 -27.3,0.55203 -12.40994,-0.0264 -23.03602,-0.10023 -23.61352,-0.16401 z m 29.59139,-89.64054 3.71679,-0.75258 44.31897,-25.42242 c 42.25346,-24.23762 44.4182,-25.52032 46.44827,-27.52245 1.61634,-1.59411 2.4312,-2.71429 3.38262,-4.65 2.29944,-4.67845 2.16105,-0.67541 2.0718,-59.92915 l -0.0799,-53.02084 -0.84708,-2.39712 c -1.50117,-4.24807 -3.8751,-7.41923 -7.15599,-9.55925 -1.74681,-1.13939 -87.53858,-50.431734 -89.51491,-51.431511 -4.4884,-2.270562 -11.4423,-2.220957 -16.1024,0.114864 -0.86878,0.435468 -21.48683,12.217537 -45.81789,26.182387 -41.22918,23.66355 -44.37417,25.52501 -46.23603,27.36632 -1.47566,1.45936 -2.32076,2.63538 -3.23374,4.5 -2.31175,4.7214 -2.14194,0.037 -2.14194,59.08935 0,51.44559 0.0169,53.0552 0.58151,55.26269 0.99755,3.90037 3.31556,7.62207 6.06929,9.74459 2.07595,1.6001 23.41393,13.81082 27.6992,15.85095 6.4384,3.06519 11.38046,4.32672 16.95,4.32672 14.98543,0 24.38207,-8.37744 26.0866,-23.25714 0.19944,-1.74103 0.30934,-20.73172 0.31094,-53.7274 l 0.002,-51.03454 -0.62178,-0.79046 -0.62177,-0.79045 -6.81148,0 c -5.67937,0 -6.92229,0.0776 -7.47822,0.46701 l -0.66675,0.46701 -0.006,50.15798 c -0.004,31.48851 -0.1166,50.93964 -0.30324,52.25799 -0.37565,2.65344 -1.72605,5.45064 -3.33171,6.90126 -0.67929,0.6137 -2.12923,1.53558 -3.22209,2.04861 -1.78342,0.83722 -2.27902,0.93324 -4.83701,0.93709 -3.14171,0.005 -5.95375,-0.69496 -8.98943,-2.23676 -0.91332,-0.46386 -6.71971,-3.81291 -12.9031,-7.44232 -8.43335,-4.95005 -11.41305,-6.8478 -11.925,-7.59494 l -0.68247,-0.996 0,-50.63788 0,-50.63786 0.975,-1.03537 c 0.63397,-0.67322 14.98336,-9.07814 41.025,-24.02972 22.0275,-12.6469 41.76902,-23.99151 43.87004,-25.21023 3.65546,-2.12041 4.86941,-2.54845 5.49495,-1.93754 0.15675,0.15308 19.9275,11.56835 43.935,25.36726 25.23427,14.50404 43.93022,25.42972 44.3142,25.89667 l 0.66421,0.80774 0.0108,50.47026 0.0108,50.47027 -0.825,0.89249 c -0.46405,0.50202 -20.17729,12.00931 -45.05801,26.30191 -43.21796,24.8263 -44.25063,25.39915 -45,24.96211 -0.42184,-0.246 -5.73803,-3.30474 -11.81376,-6.79716 -13.25059,-7.61666 -11.99433,-7.30001 -17.60323,-4.43694 -2.0625,1.05279 -5.1,2.35311 -6.75,2.8896 -4.23329,1.3764 -4.87363,2.10453 -3.225,3.66717 0.76432,0.72447 29.03229,17.44995 32.26758,19.09197 3.38845,1.71975 7.74326,1.97136 13.59881,0.78576 z m 32.18837,-68.68543 c 12.53762,-1.83037 21.78991,-6.60044 26.68973,-13.76003 1.4931,-2.18169 3.20473,-6.07761 3.77919,-8.60199 0.69264,-3.04363 0.90373,-7.9845 0.47773,-11.18206 -1.15789,-8.69129 -5.77975,-14.24026 -14.91021,-17.90107 -5.46669,-2.19186 -11.41649,-3.53863 -22.61621,-5.11932 -14.54369,-2.05265 -23.56856,-3.89712 -27.33183,-5.58597 -3.29557,-1.47897 -4.67814,-3.86037 -4.38488,-7.55268 0.30149,-3.79584 2.38631,-6.69333 6.19003,-8.60298 6.56465,-3.29577 23.28481,-3.77589 32.30146,-0.92753 5.88113,1.85785 9.52712,5.91795 11.18219,12.45226 0.86329,3.40832 0.63693,3.32063 8.55126,3.31268 8.41532,-0.008 8.17394,0.10749 7.89708,-3.79301 -0.2572,-3.62342 -1.45783,-8.0904 -3.05073,-11.35031 -4.67539,-9.56832 -13.3352,-14.86426 -28.05458,-17.15686 -5.31192,-0.82735 -19.52525,-0.74682 -24.3,0.13768 -13.27597,2.45932 -21.63542,7.84795 -25.54268,16.46523 -2.0839,4.59595 -2.78363,11.90873 -1.64516,17.19339 0.95443,4.43038 3.41251,8.54541 6.74798,11.29665 5.73044,4.72674 13.75339,7.12476 30.98567,9.26148 17.81236,2.20864 25.20909,4.07204 28.73014,7.23777 2.03077,1.82584 2.53586,3.24033 2.36752,6.6302 -0.32303,6.50487 -4.0773,10.05916 -12.42116,11.75953 -8.73731,1.78055 -24.42774,1.31726 -31.32231,-0.92486 -7.13934,-2.32172 -10.48384,-6.34332 -11.67846,-14.04279 -0.53817,-3.46859 -0.13391,-3.30743 -8.29626,-3.30743 l -6.98173,0 -0.65624,0.825 c -0.60748,0.76369 -0.64176,1.03597 -0.46125,3.66361 0.52985,7.71297 2.80846,13.25664 7.48846,18.21881 6.2563,6.6335 16.0124,10.49517 29.73548,11.76995 4.51098,0.41903 16.47202,0.17705 20.52977,-0.41535 z"
     style="fill:#000000" />
</svg>
