<?xml version="1.0" encoding="UTF-8" standalone="no"?>
<svg
   xmlns:dc="http://purl.org/dc/elements/1.1/"
   xmlns:cc="http://creativecommons.org/ns#"
   xmlns:rdf="http://www.w3.org/1999/02/22-rdf-syntax-ns#"
   xmlns:svg="http://www.w3.org/2000/svg"
   xmlns="http://www.w3.org/2000/svg"
   id="svg2"
   version="1.1"
   width="500"
   height="500"
   viewBox="0 0 500 500">
  <metadata
     id="metadata8">
    <rdf:RDF>
      <cc:Work
         rdf:about="">
        <dc:format>image/svg+xml</dc:format>
        <dc:type
           rdf:resource="http://purl.org/dc/dcmitype/StillImage" />
        <dc:title></dc:title>
      </cc:Work>
    </rdf:RDF>
  </metadata>
  <defs
     id="defs6" />
  <path
     id="path3340"
     d="M 250,0 C 112.15077,0 0,112.15077 0,250 0,387.84923 112.15077,500 250,500 387.84923,500 500,387.84923 500,250 500,112.15077 387.84923,0 250,0 Z m 0,37.478516 C 367.59433,37.478516 462.52148,132.40567 462.52148,250 462.52148,367.59433 367.59433,462.52148 250,462.52148 132.40567,462.52148 37.478516,367.59433 37.478516,250 37.478516,132.40567 132.40567,37.478516 250,37.478516 Z"
     style="color:#000000;font-style:normal;font-variant:normal;font-weight:normal;font-stretch:normal;font-size:medium;line-height:normal;font-family:sans-serif;text-indent:0;text-align:start;text-decoration:none;text-decoration-line:none;text-decoration-style:solid;text-decoration-color:#000000;letter-spacing:normal;word-spacing:normal;text-transform:none;direction:ltr;block-progression:tb;writing-mode:lr-tb;baseline-shift:baseline;text-anchor:start;white-space:normal;clip-rule:nonzero;display:inline;overflow:visible;visibility:visible;opacity:1;isolation:auto;mix-blend-mode:normal;color-interpolation:sRGB;color-interpolation-filters:linearRGB;solid-color:#000000;solid-opacity:1;fill:#000000;fill-opacity:1;fill-rule:nonzero;stroke:none;stroke-width:37.47852325;stroke-linecap:butt;stroke-linejoin:miter;stroke-miterlimit:4;stroke-dasharray:none;stroke-dashoffset:0;stroke-opacity:1;color-rendering:auto;image-rendering:auto;shape-rendering:auto;text-rendering:auto;enable-background:accumulate" />
  <g
     id="text4135"
     style="font-style:normal;font-variant:normal;font-weight:bold;font-stretch:normal;font-size:90px;line-height:100%;font-family:Norasi;-inkscape-font-specification:'Norasi, Bold';text-align:start;letter-spacing:0px;word-spacing:0px;writing-mode:lr-tb;text-anchor:start;fill:#000000;fill-opacity:1;stroke:none;stroke-width:1px;stroke-linecap:butt;stroke-linejoin:miter;stroke-opacity:1">
    <path
       id="path3339"
       style="font-style:normal;font-variant:normal;font-weight:900;font-stretch:normal;font-size:112.5px;font-family:'Source Code Pro';-inkscape-font-specification:'Source Code Pro Heavy'"
       d="m 84.538285,291.93597 q -5.5125,0 -9.45,-0.9 -3.9375,-0.7875 -6.525,-2.7 -2.5875,-1.9125 -3.825,-5.0625 -1.2375,-3.15 -1.2375,-7.7625 0,-2.925 0.1125,-5.175 0.225,-2.25 0.45,-4.275 0.225,-2.025 0.3375,-4.05 0.225,-2.1375 0.225,-4.725 0,-1.4625 -0.7875,-2.8125 -0.675,-1.4625 -2.3625,-2.5875 -1.6875,-1.125 -4.6125,-1.8 -2.925,-0.7875 -7.3125,-0.9 l 0,-11.25 q 4.3875,-0.1125 7.3125,-0.7875 2.925,-0.7875 4.6125,-1.9125 1.6875,-1.125 2.3625,-2.475 0.7875,-1.4625 0.7875,-2.925 0,-2.5875 -0.225,-4.6125 -0.1125,-2.1375 -0.3375,-4.1625 -0.225,-2.025 -0.45,-4.275 -0.1125,-2.25 -0.1125,-5.175 0,-4.6125 1.2375,-7.7625 1.2375,-3.15 3.825,-5.0625 2.5875,-1.9125 6.525,-2.7 3.9375,-0.9 9.45,-0.9 l 9.3375,0 0,10.125 -4.1625,0 q -3.2625,0 -5.2875,0.3375 -2.025,0.225 -3.15,1.0125 -1.125,0.675 -1.575,2.1375 -0.45,1.35 -0.45,3.4875 0,4.275 0.225,8.4375 0.225,4.1625 0.225,9.1125 0,6.75 -2.8125,9.675 -2.7,2.8125 -8.8875,3.825 l 0,0.45 q 6.1875,1.0125 8.8875,3.9375 2.8125,2.8125 2.8125,9.5625 0,4.95 -0.225,9.1125 -0.225,4.1625 -0.225,8.4375 0,2.25 0.45,3.6 0.45,1.35 1.575,2.025 1.125,0.7875 3.15,1.0125 2.025,0.3375 5.2875,0.3375 l 4.1625,0 0,10.125 -9.3375,0 z" />
    <path
       id="path3341"
       style="font-style:normal;font-variant:normal;font-weight:900;font-stretch:normal;font-size:112.5px;font-family:'Source Code Pro';-inkscape-font-specification:'Source Code Pro Heavy'"
       d="m 112.28184,274.83597 0,-73.125 27.225,0 q 5.85,0 11.1375,1.125 5.4,1.125 9.3375,3.825 4.05,2.7 6.4125,7.3125 2.3625,4.5 2.3625,11.3625 0,7.875 -3.2625,13.05 -3.15,5.175 -8.55,8.1 l 15.8625,28.35 -21.6,0 -12.6,-24.525 -6.975,0 0,24.525 -19.35,0 z m 19.35,-39.825 6.525,0 q 11.7,0 11.7,-9.675 0,-4.725 -3.0375,-6.525 -2.925,-1.8 -8.6625,-1.8 l -6.525,0 0,18 z" />
    <path
       id="path3343"
       style="font-style:normal;font-variant:normal;font-weight:900;font-stretch:normal;font-size:112.5px;font-family:'Source Code Pro';-inkscape-font-specification:'Source Code Pro Heavy'"
       d="m 182.66289,274.83597 0,-73.125 49.725,0 0,16.2 -30.375,0 0,11.475 25.875,0 0,16.2 -25.875,0 0,13.05 31.5,0 0,16.2 -50.85,0 z" />
    <path
       id="path3345"
       style="font-style:normal;font-variant:normal;font-weight:900;font-stretch:normal;font-size:112.5px;font-family:'Source Code Pro';-inkscape-font-specification:'Source Code Pro Heavy'"
       d="m 273.96895,276.18597 q -7.2,0 -14.7375,-2.475 -7.425,-2.5875 -13.6125,-7.9875 l 11.025,-13.275 q 4.1625,3.15 8.8875,5.175 4.725,1.9125 9.7875,1.9125 4.3875,0 6.1875,-1.2375 1.9125,-1.2375 1.9125,-3.0375 0,-1.575 -0.7875,-2.5875 -0.675,-1.125 -2.025,-1.9125 -1.35,-0.9 -3.375,-1.6875 -1.9125,-0.7875 -4.3875,-1.8 l -9.1125,-3.825 q -3.15,-1.125 -5.9625,-2.925 -2.8125,-1.9125 -4.95,-4.3875 -2.025,-2.5875 -3.2625,-5.85 -1.2375,-3.2625 -1.2375,-7.2 0,-4.725 2.025,-8.775 2.025,-4.1625 5.625,-7.2 3.7125,-3.15 8.775,-4.95 5.175,-1.8 11.475,-1.8 6.525,0 13.05,2.3625 6.525,2.3625 11.925,7.425 l -9.675,12.15 q -3.9375,-2.5875 -7.65,-3.9375 -3.6,-1.35 -8.775,-1.35 -3.2625,0 -5.2875,1.2375 -1.9125,1.125 -1.9125,3.7125 0,1.2375 0.7875,2.25 0.7875,0.9 2.25,1.6875 1.4625,0.7875 3.6,1.575 2.1375,0.7875 4.8375,1.8 l 8.4375,3.4875 q 7.425,2.7 11.3625,7.5375 4.05,4.8375 4.05,12.4875 0,4.6125 -1.9125,8.8875 -1.9125,4.275 -5.625,7.5375 -3.7125,3.15 -9.225,5.0625 -5.4,1.9125 -12.4875,1.9125 z" />
    <path
       id="path3347"
       style="font-style:normal;font-variant:normal;font-weight:900;font-stretch:normal;font-size:112.5px;font-family:'Source Code Pro';-inkscape-font-specification:'Source Code Pro Heavy'"
       d="m 332.2,274.83597 0,-56.925 -21.0375,0 0,-16.2 61.425,0 0,16.2 -21.0375,0 0,56.925 -19.35,0 z" />
    <path
       id="path3349"
       style="font-style:normal;font-variant:normal;font-weight:900;font-stretch:normal;font-size:112.5px;font-family:'Source Code Pro';-inkscape-font-specification:'Source Code Pro Heavy'"
       d="m 387.61856,291.93597 0,-10.125 4.1625,0 q 3.15,0 5.175,-0.3375 2.025,-0.225 3.15,-1.0125 1.125,-0.675 1.575,-2.025 0.45,-1.35 0.45,-3.6 0,-4.275 -0.225,-8.4375 -0.1125,-4.1625 -0.1125,-9.1125 0,-6.75 2.7,-9.5625 2.8125,-2.925 9,-3.9375 l 0,-0.45 q -6.1875,-1.0125 -9,-3.825 -2.7,-2.925 -2.7,-9.675 0,-4.95 0.1125,-9.1125 0.225,-4.1625 0.225,-8.4375 0,-2.1375 -0.45,-3.4875 -0.45,-1.4625 -1.575,-2.1375 -1.125,-0.7875 -3.15,-1.0125 -2.025,-0.3375 -5.175,-0.3375 l -4.1625,0 0,-10.125 9.3375,0 q 10.9125,0 15.975,3.6 5.0625,3.6 5.0625,12.825 0,2.925 -0.225,5.175 -0.1125,2.25 -0.45,4.275 -0.225,2.025 -0.45,4.1625 -0.1125,2.025 -0.1125,4.6125 0,1.4625 0.675,2.925 0.7875,1.35 2.475,2.475 1.8,1.125 4.725,1.9125 2.925,0.675 7.3125,0.7875 l 0,11.25 q -4.3875,0.1125 -7.3125,0.9 -2.925,0.675 -4.725,1.8 -1.6875,1.125 -2.475,2.5875 -0.675,1.35 -0.675,2.8125 0,2.5875 0.1125,4.725 0.225,2.025 0.45,4.05 0.3375,2.025 0.45,4.275 0.225,2.25 0.225,5.175 0,4.6125 -1.2375,7.7625 -1.2375,3.15 -3.825,5.0625 -2.5875,1.9125 -6.525,2.7 -3.9375,0.9 -9.45,0.9 l -9.3375,0 z" />
  </g>
</svg>
