<?xml version="1.0" encoding="UTF-8" standalone="no"?>
<svg
   xmlns:dc="http://purl.org/dc/elements/1.1/"
   xmlns:cc="http://creativecommons.org/ns#"
   xmlns:rdf="http://www.w3.org/1999/02/22-rdf-syntax-ns#"
   xmlns:svg="http://www.w3.org/2000/svg"
   xmlns="http://www.w3.org/2000/svg"
   enable-background="new 0 0 53.763 53.763"
   height="53.762001"
   id="Layer_1"
   version="1.1"
   viewBox="0 0 53.762001 53.762001"
   width="53.762001"
   xml:space="preserve"><metadata
     id="metadata11"><rdf:RDF><cc:Work
         rdf:about=""><dc:format>image/svg+xml</dc:format><dc:type
           rdf:resource="http://purl.org/dc/dcmitype/StillImage" /><dc:title></dc:title></cc:Work></rdf:RDF></metadata><defs
     id="defs9" /><path
     d="m 40.965001,14.879001 c -0.115,-0.638 -0.363,-1.255 -0.776,-1.822 -1.363,-1.871 -3.802,-2.55 -5.989,-2.8 -2.491,-0.2850001 -5.063,-0.124 -7.499,0.47 -0.674,0.165 -1.338,0.366 -1.989,0.604 -1.542,0.565 -2.979,1.384 -4.34,2.298 -1.268,0.853 -2.525,1.752 -3.663,2.775 -1.441,1.296 -2.595,2.946 -3.279,4.764 -0.364,1.029 -0.642,2.247 -0.408,3.573 0.215,1.229 0.734,2.325 1.367,3.221 0.63,0.903 1.341,1.647 2.042,2.304 1.341,1.256 2.659,2.272 3.687,3.324 -0.39,0.16 -0.784,0.328 -1.187,0.518 -0.345,0.175 -0.692,0.334 -1.045,0.532 -0.352,0.222 -0.666,0.451 -0.981,0.697 -0.623,0.497 -1.229,1.043 -1.779,1.712 -0.542,0.668 -1.076,1.441 -1.318,2.49 -0.072,0.253 -0.083,0.54 -0.105,0.817 0.004,0.259 0.006,0.509 0.052,0.784 0.078,0.536 0.278,1.149 0.71,1.672 0.411,0.517 1.081,0.899 1.573,1.01 0.527,0.203 1.076,0.238 1.622,0.264 1.088,-0.015 2.086,-0.343 2.995,-0.795 0.918,-0.471 1.714,-1.045 2.439,-1.898 0.389,-0.414 0.657,-0.915 0.925,-1.421 0.23,-0.495 0.391,-0.984 0.522,-1.52 0.267,-1.057 0.248,-2.288 -0.1,-3.405 -0.121,-0.4 -0.289,-0.77 -0.474,-1.125 0.193,-0.065 0.396,-0.144 0.58,-0.199 1.612,-0.486 3.694,-0.587 5.228,0.217 0.435,0.228 0.786,0.548 1.166,0.852 0.284,0.229 0.451,0.548 0.643,0.848 0.428,0.668 0.396,1.582 0.123,2.3 -0.135,0.354 -0.266,0.724 -0.568,0.968 -0.119,0.098 -0.813,0.417 -0.724,0.656 0.077,0.205 0.347,0.398 1.134,-0.074 1.668,-1 1.878,-3.244 0.96,-4.819 -0.717,-1.228 -1.921,-2.048 -3.272,-2.436 -0.734,-0.21 -1.536,-0.337 -2.301,-0.363 -0.685,-0.024 -1.379,10e-4 -2.05,0.142 -0.196,0.041 -1.759,0.588 -1.808,0.525 -0.093,-0.122 -0.186,-0.246 -0.28,-0.362 -1.36,-1.587 -2.902,-2.748 -4.203,-3.994 -1.146,-1.071 -2.47,-2.483 -2.567,-4.139 -0.117,-2.01 1.615,-3.937 2.944,-5.248 0.431,-0.425 0.892,-0.821 1.371,-1.19 2.151,-1.662 4.792,-2.976 7.361,-3.839 0.731,-0.246 1.478,-0.454 2.232,-0.619 1.054,-0.229 2.16,-0.346 3.238,-0.344 1.519,0.001 3.042,0.257 4.304,1.163 0.782,0.561 1.198,1.417 1.173,2.378 -0.072,2.775 -2.73,4.982 -5.06,6.011 -2.619,1.158 -6.114,2.164 -8.209,1.208 -1.029,-0.469 -2.01,-1.328 -2.292,-0.866 -0.209,0.342 2.04,1.855 2.265,1.976 2.046,1.102 5.288,0.795 7.769,0.045 2.74,-0.828 5.225,-2.621 6.727,-5.077 0.857,-1.406 1.408,-3.151 1.114,-4.763 z m -19.072,22.162 c 0,0.563 -0.122,1.163 -0.316,1.745 -0.224,0.49 -0.428,0.914 -0.825,1.318 -0.763,0.832 -1.751,1.364 -2.6,1.449 -0.111,0.032 -0.207,0.004 -0.309,0.002 -0.098,-0.014 -0.206,0.008 -0.296,-0.025 -0.171,-0.063 -0.403,-0.104 -0.479,-0.16 -0.086,-0.064 -0.152,-0.117 -0.214,-0.223 -0.052,-0.117 -0.114,-0.269 -0.14,-0.479 -0.018,-0.097 -0.02,-0.221 -0.027,-0.322 0.009,-0.092 -0.003,-0.178 0.013,-0.275 0.025,-0.191 0.069,-0.396 0.147,-0.609 0.151,-0.424 0.395,-0.858 0.678,-1.265 0.571,-0.8 1.284,-1.575 1.999,-2.077 0.578,-0.389 1.201,-0.751 1.827,-1.09 0.364,0.667 0.56,1.332 0.542,2.011 z m 31.869,-10.16 a 26.881001,26.881001 0 0 1 -26.881,26.881 A 26.881001,26.881001 0 0 1 0,26.881001 26.881001,26.881001 0 0 1 26.881001,0 a 26.881001,26.881001 0 0 1 26.881,26.881001 z"
     style="fill:#000000"
     id="path3337" /></svg>