<?xml version="1.0" encoding="UTF-8" standalone="no"?>
<svg
   xmlns:dc="http://purl.org/dc/elements/1.1/"
   xmlns:cc="http://creativecommons.org/ns#"
   xmlns:rdf="http://www.w3.org/1999/02/22-rdf-syntax-ns#"
   xmlns:svg="http://www.w3.org/2000/svg"
   xmlns="http://www.w3.org/2000/svg"
   id="svg3378"
   version="1.1"
   width="416.83594"
   height="352.65329"
   viewBox="0 0 416.83594 352.65328">
  <metadata
     id="metadata3384">
    <rdf:RDF>
      <cc:Work
         rdf:about="">
        <dc:format>image/svg+xml</dc:format>
        <dc:type
           rdf:resource="http://purl.org/dc/dcmitype/StillImage" />
        <dc:title></dc:title>
      </cc:Work>
    </rdf:RDF>
  </metadata>
  <defs
     id="defs3382" />
  <g
     id="g3388"
     transform="translate(8.4160156,35.825616)">
    <path
       id="path3392"
       transform="translate(-8.4160156,-35.825616)"
       d="M 122.76367 0.001953125 C 112.70143 -0.004837375 100.34144 0.019748 85.230469 0.0703125 L 0 0.35546875 L 101.46289 175.35352 C 128.17304 221.42185 152.70987 263.73127 170.72461 294.78516 C 188.73936 325.83906 199.93463 345.13581 200.88086 346.72852 C 201.70215 348.1109 202.59122 349.29525 203.65039 350.32812 C 204.17997 350.84456 204.73013 351.33254 205.58984 351.81055 C 206.44955 352.28855 207.87451 353.09662 210.20312 352.35156 L 210.20312 352.34961 C 212.28001 351.68507 212.08273 351.26544 212.29102 351.05078 C 212.49931 350.83612 212.5863 350.72325 212.66406 350.625 C 212.81956 350.42849 212.89895 350.31215 212.98633 350.18555 C 213.1611 349.93234 213.32878 349.67315 213.53711 349.3457 C 213.95379 348.6908 214.51037 347.79025 215.22266 346.61914 C 216.64724 344.27693 218.68568 340.87167 221.28125 336.5 C 226.4724 327.75665 233.8879 315.15646 242.98633 299.625 C 261.1832 268.56208 286.10576 225.77941 313.36914 178.76758 L 416.83594 0.35546875 L 331.60352 0.0703125 C 301.38102 -0.0308125 282.16508 -0.029213125 270.31836 0.12304688 C 264.39501 0.19917687 260.32819 0.3109555 257.54883 0.4765625 C 256.15915 0.5593625 255.10594 0.64862462 254.16992 0.79101562 C 253.7019 0.86221562 253.26804 0.9385335 252.7207 1.1015625 C 252.17335 1.2645915 251.47511 1.2676036 250.19336 2.5878906 C 249.44789 3.3557866 249.56578 3.3475415 249.4043 3.5859375 C 249.24283 3.8243335 249.07549 4.0839634 248.87695 4.3964844 C 248.47986 5.0215264 247.97074 5.8472831 247.34375 6.8769531 C 246.08978 8.9362911 244.3757 11.798428 242.31445 15.275391 C 238.19195 22.229316 232.68365 31.631646 226.77539 41.818359 C 220.89086 51.964136 215.4021 61.189375 211.32227 67.84375 C 210.11593 69.811349 209.34565 70.9957 208.41602 72.464844 C 207.48639 70.9957 206.71611 69.811349 205.50977 67.84375 C 201.42994 61.189375 195.94117 51.964136 190.05664 41.818359 C 184.14838 31.631646 178.64008 22.229316 174.51758 15.275391 C 172.45633 11.798428 170.74225 8.9362911 169.48828 6.8769531 C 168.86129 5.8472831 168.35217 5.0215264 167.95508 4.3964844 C 167.75654 4.0839634 167.5892 3.8243335 167.42773 3.5859375 C 167.26625 3.3475415 167.38413 3.3557866 166.63867 2.5878906 C 165.35691 1.2676586 164.65866 1.2645825 164.11133 1.1015625 C 163.564 0.9385425 163.13012 0.86220863 162.66211 0.79101562 C 161.7261 0.64862962 160.67285 0.5593645 159.2832 0.4765625 C 156.50389 0.3109585 152.43692 0.19917888 146.51367 0.12304688 C 140.59042 0.046914375 132.82592 0.008743625 122.76367 0.001953125 z M 89.988281 10.060547 C 90.378987 11.070643 116.48229 56.454421 148.41602 111.64062 C 185.01121 174.88253 207.47768 212.73733 208.41602 212.73633 C 209.35292 212.73533 231.87688 174.79247 268.41602 111.66406 C 300.39656 56.411521 326.54188 10.954932 326.85742 10.060547 C 328.66972 10.066078 329.672 10.063961 331.57031 10.070312 L 399.50977 10.296875 L 304.71875 173.75195 C 277.46141 220.75338 252.54312 263.52646 234.35742 294.57031 C 225.26457 310.09224 217.85399 322.68284 212.68164 331.39453 C 210.68188 334.7627 209.33581 337.0009 208.04102 339.14844 C 206.72453 336.89171 196.53013 319.33965 179.375 289.76758 C 161.36085 258.7147 136.82504 216.40564 110.11523 170.33789 L 17.322266 10.296875 L 85.263672 10.070312 C 87.166672 10.063945 88.171729 10.06609 89.988281 10.060547 z "
       style="color:#000000;font-style:normal;font-variant:normal;font-weight:normal;font-stretch:normal;font-size:medium;line-height:normal;font-family:sans-serif;text-indent:0;text-align:start;text-decoration:none;text-decoration-line:none;text-decoration-style:solid;text-decoration-color:#000000;letter-spacing:normal;word-spacing:normal;text-transform:none;direction:ltr;block-progression:tb;writing-mode:lr-tb;baseline-shift:baseline;text-anchor:start;white-space:normal;clip-rule:nonzero;display:inline;overflow:visible;visibility:visible;opacity:1;isolation:auto;mix-blend-mode:normal;color-interpolation:sRGB;color-interpolation-filters:linearRGB;solid-color:#000000;solid-opacity:1;fill:#000000;fill-opacity:1;fill-rule:nonzero;stroke:none;stroke-width:10;stroke-linecap:butt;stroke-linejoin:miter;stroke-miterlimit:4;stroke-dasharray:none;stroke-dashoffset:0;stroke-opacity:1;color-rendering:auto;image-rendering:auto;shape-rendering:auto;text-rendering:auto;enable-background:accumulate" />
  </g>
</svg>
