<?xml version="1.0" encoding="UTF-8" standalone="no"?>
<svg
   xmlns:dc="http://purl.org/dc/elements/1.1/"
   xmlns:cc="http://creativecommons.org/ns#"
   xmlns:rdf="http://www.w3.org/1999/02/22-rdf-syntax-ns#"
   xmlns:svg="http://www.w3.org/2000/svg"
   xmlns="http://www.w3.org/2000/svg"
   viewBox="0 0 0 477.34558"
   height="477.34558"
   width="477.34558"
   version="1.1"
   id="svg2">
  <metadata
     id="metadata8">
    <rdf:RDF>
      <cc:Work
         rdf:about="">
        <dc:format>image/svg+xml</dc:format>
        <dc:type
           rdf:resource="http://purl.org/dc/dcmitype/StillImage" />
        <dc:title></dc:title>
      </cc:Work>
    </rdf:RDF>
  </metadata>
  <defs
     id="defs6" />
  <path
     id="path3338"
     d="M 136.67009,418.90768 C 81.248994,386.8119 34.980564,359.77739 33.851344,358.83098 c -1.88196,-1.57729 -2.02655,-11.67071 -1.73437,-121.0697 L 32.435724,118.41233 134.93572,59.214755 C 191.31072,26.656085 238.27947,0.00945055 239.31072,2.5377554e-6 240.34197,-0.00949745 287.31072,26.654335 343.68572,59.252835 l 102.5,59.270015 0.31875,119.25256 c 0.30035,112.36837 0.1921,119.36381 -1.875,121.17984 -1.20656,1.06002 -41.00625,24.28669 -88.44375,51.61483 -47.4375,27.32815 -92.76909,53.55059 -100.73685,58.2721 -7.96777,4.7215 -15.28027,8.54785 -16.25,8.503 -0.96974,-0.0449 -47.10769,-26.34174 -102.52877,-58.4375 z m 99.71419,-6.52405 -0.82971,-38.79311 5.84711,-2.50637 c 10.35298,-4.4378 9.70198,-6.83795 10.4329,38.46504 0.35688,22.11931 1.02888,40.59694 1.49334,41.0614 0.46446,0.46446 40.53184,-22.05401 89.03864,-50.04105 l 88.19416,-50.88554 0,-105.50363 c 0,-64.28164 -0.45465,-105.50364 -1.16363,-105.50364 -0.64,0 -16.76252,9 -35.82785,20 -19.06531,11 -35.41668,20 -36.33637,20 -0.92083,0 -1.67215,-1.31706 -1.67215,-2.93126 0,-1.6122 -1.125,-3.94938 -2.5,-5.19374 -1.375,-1.24436 -2.5,-2.91732 -2.5,-3.7177 0,-0.80038 16.03125,-10.68821 35.625,-21.97296 19.59375,-11.28475 35.625,-20.89063 35.625,-21.3464 0,-0.45577 -40.54971,-24.263315 -90.11046,-52.905665 -61.17847,-35.3565 -91.0325,-51.953436 -92.98219,-51.69214 -3.92289,0.52575 -180.623486,102.531875 -180.642306,104.281615 -0.009,0.76821 15.87558,10.24555 35.29746,21.06075 19.421866,10.8152 35.874996,20.20877 36.562496,20.87461 0.82336,0.79741 0.0434,2.09513 -2.28511,3.80211 -1.94432,1.42533 -4.04838,3.94148 -4.67569,5.59144 -1.00274,2.63741 -1.48189,2.82504 -3.96489,1.55261 -1.55337,-0.79602 -17.46819,-9.53741 -35.366246,-19.4253 -17.89805,-9.88788 -33.22617,-17.97797 -34.0625,-17.97797 -1.12917,0 -1.49882,4.74571 -1.43611,18.4375 0.17435,38.0616 3.1788,191.49241 3.76117,192.07479 1.26423,1.26422 183.082906,101.91277 184.168516,101.94933 0.6791,0.0229 0.80406,-15.62833 0.30942,-38.75472 z m -49.23729,-88.50525 c -24.2213,-13.51716 -44.85265,-25.4204 -45.84745,-26.45165 -2.67461,-2.77264 -4.48501,-107.5138 -1.85759,-107.47275 0.95907,0.015 22.27502,11.45447 47.36877,25.4211 l 45.625,25.39386 0.77612,18.64139 c 0.42687,10.25277 0.84874,34.53203 0.9375,53.9539 0.12593,27.55552 -0.18184,35.28815 -1.40112,35.20165 -0.85938,-0.061 -21.37993,-11.17035 -45.60123,-24.6875 z m 63.03229,23.94244 c -0.34887,-0.56449 -1.04646,-24.37532 -1.55021,-52.91294 -0.76911,-43.57178 -0.63765,-52.11526 0.82039,-53.31344 2.85398,-2.34535 88.74642,-51.66771 89.97673,-51.66771 0.66178,0 1.13453,22.39079 1.13453,53.73432 l 0,53.73432 -4.6875,2.9366 c -7.724,4.83889 -81.029,46.9685 -83.1223,47.77177 -1.06552,0.40889 -2.22276,0.28157 -2.57164,-0.28292 z M 194.59311,203.18526 c -24.93845,-13.92532 -45.91541,-25.89156 -46.61549,-26.59163 -0.86381,-0.86381 -0.7537,-1.69916 0.34262,-2.59944 4.42013,-3.62966 89.03655,-51.56746 91.02326,-51.56746 2.33235,0 87.826,48.72324 91.14282,51.94272 0.99033,0.96127 1.55283,1.99314 1.25,2.29307 -1.40572,1.39221 -89.8879,52.00386 -90.78327,51.92786 -0.55953,-0.0475 -21.4215,-11.4798 -46.35994,-25.40512 z"
     style="fill:#000000" />
</svg>
